<svg width="17" height="18" viewBox="0 0 17 18" fill="none" xmlns="http://www.w3.org/2000/svg">
<g clip-path="url(#clip0_14_228)">
<path d="M8.16658 2.79614L7.80745 4.49017C7.50279 5.92708 6.44672 7.0492 5.09432 7.37288L3.49992 7.75448L5.09432 8.13608C6.44672 8.45976 7.50279 9.58183 7.80745 11.0188L8.16658 12.7128L8.52572 11.0188C8.83039 9.58183 9.88645 8.45976 11.2389 8.13608L12.8333 7.75448L11.2389 7.37288C9.88652 7.0492 8.83039 5.92708 8.52572 4.49018L8.16658 2.79614Z" fill="white"/>
<path d="M13.4999 9.87964L13.2434 11.0897C13.0258 12.116 12.2714 12.9175 11.3055 13.1487L10.1666 13.4213L11.3055 13.6939C12.2714 13.9251 13.0258 14.7266 13.2434 15.7529L13.4999 16.963L13.7565 15.7529C13.9741 14.7266 14.7284 13.9251 15.6944 13.6939L16.8333 13.4213L15.6944 13.1487C14.7284 12.9175 13.9741 12.1161 13.7565 11.0897L13.4999 9.87964Z" fill="white"/>
</g>
<defs>
<clipPath id="clip0_14_228">
<rect width="16" height="17" fill="white" transform="matrix(-1 0 0 1 16.5 0.796143)"/>
</clipPath>
</defs>
</svg>
