<svg width="341" height="209" viewBox="0 0 341 209" fill="none" xmlns="http://www.w3.org/2000/svg">
<circle cx="111.5" cy="95.9338" r="50.5" fill="#D5016C"/>
<circle cx="112" cy="96.4338" r="41" fill="#AF0159"/>
<circle cx="112" cy="96.4338" r="32" fill="#90268E"/>
<path fill-rule="evenodd" clip-rule="evenodd" d="M60.333 36C52.6593 42.785 46.3972 51.015 41.9042 60.2201C37.4112 69.4252 34.7753 79.4252 34.1469 89.649C33.5185 99.8728 34.9101 110.12 38.242 119.806C41.574 129.492 46.7811 138.427 53.5661 146.101C60.3512 153.775 68.5812 160.037 77.7863 164.53C86.9914 169.023 96.9913 171.659 107.215 172.287C117.439 172.915 127.686 171.524 137.372 168.192C146.342 165.106 154.667 160.413 161.943 154.348L153.191 145.595C147.272 150.361 140.566 154.068 133.366 156.544C125.209 159.35 116.58 160.522 107.971 159.993C99.3614 159.464 90.9406 157.244 83.1891 153.461C75.4376 149.677 68.5073 144.404 62.7937 137.942C57.0801 131.48 52.6953 123.956 49.8895 115.8C47.0837 107.643 45.9119 99.0139 46.4411 90.4046C46.9702 81.7953 49.1899 73.3745 52.9734 65.623C56.7569 57.8715 62.0301 50.9411 68.492 45.2276L60.333 36Z" fill="#231F20"/>
<path d="M195.018 117.428V98.2727H201.41V131H195.146V125.332H194.805C194.052 127.08 192.845 128.536 191.183 129.7C189.535 130.851 187.483 131.426 185.025 131.426C182.923 131.426 181.062 130.964 179.443 130.041C177.838 129.104 176.574 127.719 175.65 125.886C174.741 124.054 174.287 121.788 174.287 119.089V98.2727H180.657V118.322C180.657 120.553 181.275 122.328 182.511 123.649C183.747 124.97 185.352 125.631 187.326 125.631C188.52 125.631 189.706 125.332 190.885 124.736C192.078 124.139 193.065 123.237 193.846 122.03C194.642 120.822 195.032 119.288 195.018 117.428ZM209.97 131V98.2727H216.341V131H209.97ZM213.188 93.223C212.08 93.223 211.128 92.8537 210.332 92.1151C209.551 91.3622 209.161 90.4673 209.161 89.4304C209.161 88.3793 209.551 87.4844 210.332 86.7457C211.128 85.9929 212.08 85.6165 213.188 85.6165C214.295 85.6165 215.24 85.9929 216.021 86.7457C216.817 87.4844 217.214 88.3793 217.214 89.4304C217.214 90.4673 216.817 91.3622 216.021 92.1151C215.24 92.8537 214.295 93.223 213.188 93.223ZM224.23 131V126.632L241.957 104.111V103.812H224.805V98.2727H249.904V102.918L232.859 125.162V125.46H250.501V131H224.23ZM257.335 131V126.632L275.062 104.111V103.812H257.911V98.2727H283.01V102.918L265.964 125.162V125.46H283.607V131H257.335ZM297.493 87.3636V131H291.123V87.3636H297.493ZM320.169 131.661C316.945 131.661 314.168 130.972 311.838 129.594C309.523 128.202 307.733 126.249 306.469 123.734C305.219 121.206 304.594 118.244 304.594 114.849C304.594 111.497 305.219 108.543 306.469 105.986C307.733 103.429 309.494 101.433 311.753 99.9986C314.026 98.5639 316.682 97.8466 319.722 97.8466C321.568 97.8466 323.358 98.152 325.091 98.7628C326.824 99.3736 328.379 100.332 329.757 101.639C331.135 102.946 332.222 104.643 333.017 106.732C333.813 108.805 334.21 111.327 334.21 114.295V116.554H308.195V111.781H327.967C327.967 110.105 327.626 108.621 326.945 107.328C326.263 106.021 325.304 104.991 324.068 104.239C322.847 103.486 321.412 103.109 319.764 103.109C317.974 103.109 316.412 103.55 315.077 104.43C313.756 105.297 312.733 106.433 312.009 107.839C311.298 109.232 310.943 110.744 310.943 112.378V116.107C310.943 118.294 311.327 120.155 312.094 121.689C312.875 123.223 313.962 124.395 315.354 125.205C316.746 126 318.372 126.398 320.233 126.398C321.44 126.398 322.541 126.227 323.536 125.886C324.53 125.531 325.389 125.006 326.114 124.31C326.838 123.614 327.392 122.754 327.776 121.732L333.805 122.818C333.322 124.594 332.456 126.149 331.206 127.484C329.97 128.805 328.415 129.835 326.54 130.574C324.679 131.298 322.555 131.661 320.169 131.661Z" fill="black"/>
<path d="M157.077 141.434L177 160.515" stroke="#D5016C" stroke-width="12"/>
</svg>
