<svg width="17" height="16" viewBox="0 0 17 16" fill="none" xmlns="http://www.w3.org/2000/svg">
<path d="M3.33984 7.34663V10.66C3.33984 11.8733 3.33984 11.8733 4.48651 12.6466L7.63984 14.4666C8.11318 14.74 8.88651 14.74 9.35984 14.4666L12.5132 12.6466C13.6598 11.8733 13.6598 11.8733 13.6598 10.66V7.34663C13.6598 6.13329 13.6598 6.13329 12.5132 5.35996L9.35984 3.53996C8.88651 3.26663 8.11318 3.26663 7.63984 3.53996L4.48651 5.35996C3.33984 6.13329 3.33984 6.13329 3.33984 7.34663Z" stroke="white" stroke-width="1.1" stroke-linecap="round" stroke-linejoin="round"/>
<path d="M12.1668 5.08659V3.33325C12.1668 1.99992 11.5002 1.33325 10.1668 1.33325H6.8335C5.50016 1.33325 4.8335 1.99992 4.8335 3.33325V5.03992" stroke="white" stroke-width="1.1" stroke-linecap="round" stroke-linejoin="round"/>
<path d="M8.92018 7.32664L9.30018 7.91997C9.36018 8.01331 9.49351 8.10664 9.59351 8.13331L10.2735 8.30664C10.6935 8.41331 10.8068 8.77331 10.5335 9.10664L10.0868 9.64664C10.0202 9.73331 9.96685 9.88664 9.97351 9.99331L10.0135 10.6933C10.0402 11.1266 9.73351 11.3466 9.33351 11.1866L8.68018 10.9266C8.58018 10.8866 8.41351 10.8866 8.31351 10.9266L7.66018 11.1866C7.26018 11.3466 6.95351 11.12 6.98018 10.6933L7.02018 9.99331C7.02685 9.88664 6.97351 9.72664 6.90685 9.64664L6.46018 9.10664C6.18685 8.77331 6.30018 8.41331 6.72018 8.30664L7.40018 8.13331C7.50685 8.10664 7.64018 8.00664 7.69351 7.91997L8.07351 7.32664C8.31351 6.96664 8.68685 6.96664 8.92018 7.32664Z" stroke="white" stroke-width="1.1" stroke-linecap="round" stroke-linejoin="round"/>
</svg>
