<svg width="161" height="161" viewBox="0 0 161 161" fill="none" xmlns="http://www.w3.org/2000/svg">
<g id="graduation">
<path id="Vector" d="M146.186 60.8625L137.418 54.6871L128.956 68.3659C128.044 69.8345 126.601 70.8948 124.927 71.326C124.345 74.4105 122.432 78.471 119.439 80.4952C118.576 81.0734 116.366 82.355 115.526 81.7503C117.871 78.5833 117.258 72.9533 115.593 69.5601C112.635 63.715 110.113 57.6592 108.049 51.4423L96.8962 54.0014C97.3461 61.9933 99.4778 75.3063 105.085 80.897C96.6331 95.3096 89.7023 116.08 89.1377 117.209C89.147 117.221 89.1588 117.232 89.1722 117.239C89.5034 117.433 93.13 121.429 101.38 123.579C112.327 126.43 123.907 123.91 134.126 119.616C132.616 113.33 131.444 106.969 130.613 100.559C129.948 94.4465 131.195 88.2786 134.183 82.9052C134.14 82.9822 142.947 66.7924 146.186 60.8625Z" fill="#B26EE6"/>
<path id="Vector_2" d="M75.561 105.189C75.5434 105.109 66.7199 89.6652 59.9928 80.0871C60.1922 79.97 60.3881 79.8419 60.5806 79.7029C73.6234 70.1744 71.2174 55.0794 69.0713 47.8462L56.7591 48.8086C58.8732 61.2868 54.3588 67.2183 52.0177 69.3765C51.2264 70.0991 50.6189 71.0002 50.2457 72.0047C49.8725 73.0093 49.7443 74.0884 49.8719 75.1525C49.9994 76.2165 50.3789 77.2348 50.9789 78.1227C51.5789 79.0106 52.3821 79.7426 53.3218 80.2579C50.7993 80.3386 48.3129 79.6432 46.1983 78.2656C44.0836 76.8881 42.4428 74.8947 41.4972 72.5547C29.8307 76.8855 21.773 87.5087 16.1543 98.3789C17.816 102.224 22.96 103.745 26.8537 104.063C28.9685 98.9266 32.2952 93.1908 37.5137 91.2147C37.7407 91.1273 37.9324 91.3454 37.9492 91.5459C37.9817 92.0632 37.9745 92.5823 37.9276 93.0986C37.3213 102.255 31.4314 113.933 26.5882 121.878C44.1013 125.808 64.4558 122.877 74.1671 107.556C74.273 107.392 75.6284 105.515 75.561 105.189Z" fill="#61C0FF"/>
<path id="Vector_3" d="M69.9575 30.8231C68.6544 31.1216 67.3806 31.536 66.1512 32.0614C65.3059 32.3372 64.4614 32.6121 63.6177 32.8858C64.2661 32.044 64.7595 31.0935 65.075 30.0788C65.4238 28.4869 63.6883 28.5655 62.9168 29.5247C62.5156 30.0519 62.2313 30.6586 62.0827 31.3043C61.6254 30.8319 61.1105 30.4188 60.5501 30.0748C59.9703 29.73 58.8547 29.4252 58.6622 30.3796C58.497 31.1992 59.4041 32.0493 59.9141 32.5642C60.311 32.9604 60.7286 33.3351 61.1652 33.687C59.3808 34.2652 53.1044 36.3143 48.3165 37.8686C47.0678 38.2848 49.0047 44.9758 50.2349 44.2733C55.9683 42.3782 72.4501 36.9607 72.5303 36.9054C73.9618 35.9157 71.6545 30.6186 69.9575 30.8231ZM62.7075 31.8079C62.7949 31.4246 63.6362 28.7908 64.386 29.5367C64.9314 30.074 62.7396 33.1705 62.4869 33.2531C62.5282 32.767 62.6019 32.2842 62.7075 31.8079ZM60.8934 32.5409C60.2659 32.0744 59.753 31.471 59.3936 30.7766C59.1057 29.9489 60.4138 30.7854 60.6496 30.9602C61.1026 31.3099 61.5266 31.6956 61.9175 32.1135C61.8542 32.5145 61.8173 32.9219 61.794 33.3084C61.4873 33.0603 61.187 32.8044 60.8934 32.5409ZM63.151 39.2488C58.6253 40.7413 55.6419 41.7558 50.5252 43.4536C50.5271 41.6434 49.9799 39.8753 48.9557 38.3826C53.5271 36.8958 58.0984 35.4078 62.6698 33.9188C63.2235 34.6811 63.5607 35.579 63.6454 36.5174C63.7301 37.4558 63.5593 38.3996 63.151 39.2488ZM64.0203 38.9617C64.6122 37.2976 64.6323 34.6718 63.2657 33.7231C70.7859 31.2778 69.9334 31.6355 70.0938 31.5248C72.8278 34.6462 72.1557 36.445 72.3482 36.2333C72.2688 36.3304 72.8046 36.0673 64.0203 38.9617ZM106.677 34.8122L95.2194 42.0189C95.2272 41.4134 95.2004 40.808 95.1392 40.2056C95.0654 39.5119 94.9788 38.3089 94.241 37.96C92.702 37.2382 92.7236 40.1053 92.8158 41.2433C92.5391 41.1104 92.2538 40.9963 91.9617 40.9017C91.1597 40.6443 89.4507 40.5007 89.2454 41.686C89.0272 42.9508 91.4107 43.3037 92.965 43.4344C86.8274 47.3032 87.2211 47.0081 87.1401 47.2102C86.6589 48.3642 88.6968 53.7263 90.6192 52.6822C94.002 50.8504 97.2107 48.5752 100.476 46.5429C103.769 44.4941 107.061 42.4437 110.351 40.3916C111.735 40.0508 107.787 34.1088 106.677 34.8122ZM93.536 41.5529C93.4675 41.0282 93.4426 40.4987 93.4614 39.9698C93.4751 39.5953 93.6619 37.9953 94.1592 38.8671C94.6692 39.7605 94.5866 41.2081 94.5345 42.2763C93.4566 41.4944 93.536 41.7109 93.536 41.5529ZM92.4694 42.6557C91.9818 42.5867 90.312 42.4728 90.0321 41.9716C89.7619 41.4904 90.6513 41.3653 91.0178 41.3957C92.1124 41.6231 93.1429 42.0907 94.0349 42.7647C93.5106 42.7856 92.9857 42.749 92.4694 42.6557ZM90.2238 52.1192C90.1701 52.1502 90.1189 52.1853 90.0706 52.2242C90.1749 52.128 89.4467 51.6267 89.421 51.6003C88.643 50.8145 88.1306 49.8049 87.9558 48.7131C87.9466 48.306 87.9016 47.9005 87.821 47.5013C88.4522 47.0802 86.2034 48.4966 93.8239 43.7039C94.0833 44.5937 94.5478 45.4103 95.1802 46.088C95.8126 46.7656 96.5951 47.2854 97.465 47.6055L91.4701 51.338C91.0841 51.6431 90.6662 51.9055 90.2238 52.1208V52.1192ZM98.263 47.1099C97.3397 46.8876 96.495 46.4165 95.8208 45.7477C95.1466 45.0788 94.6687 44.238 94.4391 43.3165C95.9516 42.3677 104.101 37.2398 106.651 35.635C107.143 37.3756 108.15 38.9269 109.538 40.0861L98.2622 47.1115L98.263 47.1099Z" fill="#B26EE6"/>
<path id="Vector_4" d="M54.154 122.31C64.2687 130.175 56.0282 136.746 56.0282 136.746C56.0282 136.746 49.3926 142.921 57.1711 144.297C64.9496 145.672 71.3623 137.43 71.5885 130.106C71.7489 124.983 68.3276 119.529 66.2568 116.708C62.6029 119.307 58.4995 121.206 54.154 122.31ZM31.1978 123.291C30.503 125.528 29.4664 127.645 28.1246 129.565C26.62 131.584 25.1163 131.147 22.8531 130.594C20.2987 129.966 17.1902 129.194 16.0081 132.268C15.6317 133.41 15.5691 134.631 15.8269 135.804C16.0847 136.978 16.6534 138.06 17.4733 138.939C20.1544 141.794 24.7233 141.906 28.3339 141.559C39.2682 140.499 44.0858 128.976 45.721 123.745C40.878 124.128 36.0074 123.976 31.1978 123.291ZM93.2487 135.351C93.8152 138.829 95.6776 141.965 98.4616 144.127C100.702 145.832 105.512 148.047 108.114 145.884C109.349 144.86 109.536 143.058 109.584 141.559C109.631 140.859 109.576 140.157 109.418 139.474C108.652 136.613 103.849 137.737 104.945 134.054C105.963 131.07 107.28 128.197 108.875 125.478C108.887 125.452 108.923 125.391 108.976 125.304C103.896 125.134 98.9121 123.87 94.365 121.598C92.9879 126.045 92.6067 130.74 93.2487 135.351ZM141.97 131.531C141.44 131.074 140.846 130.698 140.205 130.415C137.829 129.461 136.19 132.63 134.096 131.618C132.493 130.836 129.301 123.784 128.582 122.227C123.495 123.999 118.183 125.039 112.804 125.318C117.794 134.712 127.118 144.88 137.349 141.973C140.057 141.206 144.717 138.684 144.547 135.306C144.468 133.702 143.139 132.468 141.97 131.531Z" fill="#7D4AB4"/>
<path id="Vector_5" d="M107.066 47.8742C107.053 47.8015 107.025 47.7325 106.983 47.6716C106.941 47.6108 106.887 47.5597 106.824 47.5216C106.761 47.4836 106.69 47.4596 106.617 47.4513C106.543 47.4429 106.469 47.4504 106.399 47.4732L96.7597 50.4727C96.7765 51.6412 96.827 52.8161 96.8928 53.9974L108.045 51.4383C107.66 50.1783 107.22 48.6898 107.066 47.8742ZM67.5864 43.7151L55.915 44.8571C56.2679 46.2398 56.5446 47.5582 56.7587 48.8093L69.0709 47.8469C68.6624 46.4402 68.1666 45.0602 67.5864 43.7151Z" fill="#F55555"/>
<path id="Vector_6" d="M133.131 57.7972C132.159 53.2355 128.06 50.925 123.561 51.0437C121.075 51.1094 119.41 52.0991 117.701 53.8041C116.123 55.3776 114.441 57.0867 112.06 57.1653C111.73 57.1424 111.399 57.1904 111.089 57.3059C110.779 57.4214 110.498 57.6018 110.263 57.835C110.029 58.0682 109.847 58.3488 109.729 58.6581C109.612 58.9674 109.562 59.2981 109.584 59.6282C109.357 63.7488 114.161 77.4781 127.891 72.9043C131.67 71.6444 137.996 68.8366 136.109 63.7705C135.503 62.144 134.012 61.002 133.471 59.2665C133.324 58.7781 133.232 58.2856 133.131 57.7972ZM111.661 140.417C111.769 141.933 111.764 144.445 110.766 145.853C110.628 146.044 110.554 146.273 110.554 146.508C110.554 146.743 110.628 146.971 110.766 147.162C111.56 148.247 112.706 150.649 111.438 154.547C111.327 154.89 111.351 155.262 111.507 155.586C111.662 155.911 111.936 156.164 112.272 156.293C112.608 156.421 112.981 156.416 113.313 156.278C113.646 156.14 113.913 155.879 114.059 155.55C115.968 151.117 117.042 146.369 117.228 141.546C117.236 141.312 117.184 141.08 117.077 140.871C116.97 140.663 116.812 140.485 116.618 140.355C115.47 139.695 114.182 139.316 112.86 139.248C112.701 139.233 112.541 139.252 112.39 139.305C112.24 139.358 112.103 139.443 111.989 139.554C111.875 139.665 111.786 139.8 111.729 139.949C111.673 140.098 111.649 140.258 111.661 140.417ZM52.0438 140.417C51.9355 141.933 51.9388 144.445 52.9372 145.853C53.0754 146.044 53.1498 146.273 53.1498 146.508C53.1498 146.743 53.0754 146.971 52.9372 147.162C52.1441 148.247 50.9972 150.649 52.266 154.547C52.3796 154.89 52.3566 155.264 52.2019 155.59C52.0471 155.917 51.7725 156.171 51.4351 156.3C51.0977 156.429 50.7234 156.423 50.3902 156.284C50.057 156.144 49.7904 155.882 49.6459 155.55C47.7358 151.117 46.661 146.369 46.4756 141.546C46.4677 141.312 46.5197 141.08 46.6264 140.871C46.7332 140.663 46.8914 140.485 47.0859 140.355C48.2342 139.695 49.5222 139.316 50.8448 139.248C51.0036 139.233 51.1638 139.252 51.3143 139.304C51.4649 139.357 51.6021 139.442 51.7163 139.553C51.8305 139.665 51.919 139.8 51.9756 139.949C52.0322 140.098 52.0555 140.258 52.0438 140.417ZM16.2405 128.955C15.1803 130.045 13.5635 131.968 13.4151 133.686C13.3992 133.921 13.3091 134.145 13.1579 134.325C13.0067 134.505 12.8022 134.633 12.5738 134.689C11.2658 135.01 8.84133 136.102 7.2983 139.902C7.15777 140.228 6.89868 140.49 6.57323 140.633C6.24779 140.776 5.88019 140.79 5.54453 140.673C5.20888 140.556 4.93012 140.316 4.76444 140.001C4.59876 139.687 4.55848 139.321 4.65173 138.978C6.05071 134.357 8.29137 130.034 11.2609 126.226C11.4061 126.043 11.5953 125.899 11.8109 125.808C12.0266 125.718 12.2617 125.683 12.4944 125.707C13.798 125.945 15.0275 126.485 16.0833 127.286C16.2148 127.377 16.3249 127.495 16.4057 127.633C16.4865 127.771 16.5362 127.925 16.5512 128.084C16.5661 128.243 16.5461 128.403 16.4924 128.554C16.4388 128.704 16.3528 128.841 16.2405 128.955ZM143.945 130.689C145.028 131.756 146.683 133.646 146.866 135.359C146.887 135.594 146.982 135.815 147.137 135.992C147.293 136.169 147.5 136.292 147.729 136.344C149.041 136.632 151.488 137.683 153.109 141.446C153.25 141.779 153.514 142.044 153.846 142.188C154.178 142.331 154.553 142.341 154.892 142.215C155.231 142.089 155.509 141.838 155.667 141.513C155.826 141.188 155.853 140.814 155.743 140.47C154.247 135.88 151.918 131.605 148.871 127.86C148.723 127.678 148.53 127.538 148.312 127.451C148.094 127.365 147.857 127.336 147.624 127.368C146.326 127.631 145.109 128.197 144.072 129.02C143.942 129.113 143.835 129.234 143.758 129.373C143.68 129.512 143.633 129.666 143.621 129.825C143.609 129.984 143.632 130.144 143.688 130.293C143.744 130.442 143.831 130.578 143.945 130.689Z" fill="black"/>
<path id="Vector_7" d="M117.091 72.8956C116.977 73.7024 116.519 75.7692 117.247 76.3963C117.928 76.985 119.074 76.1485 119.573 75.7082C120.886 74.4113 121.875 72.8236 122.46 71.0735C122.513 70.934 123.899 67.402 123.912 67.3282C125.239 66.9661 126.42 66.1997 127.291 65.1356C127.455 65.2988 127.656 65.4213 127.876 65.4933C128.096 65.5653 128.33 65.5848 128.559 65.5502C128.788 65.5157 129.006 65.428 129.195 65.2943C129.385 65.1606 129.54 64.9844 129.649 64.78C129.758 64.5755 129.818 64.3484 129.823 64.1168C129.829 63.8851 129.78 63.6554 129.681 63.4459C129.582 63.2364 129.436 63.0529 129.253 62.9102C129.071 62.7674 128.857 62.6693 128.63 62.6237C129.096 61.253 129.061 59.7617 128.533 58.414C128.004 57.0662 127.016 55.9489 125.743 55.2599C122.796 53.8042 119.116 55.243 117.521 58.4734C116.812 59.794 116.592 61.3223 116.899 62.7893C117.206 64.2563 118.02 65.5679 119.199 66.4934C117.116 72.0728 117.267 71.6494 117.091 72.8956Z" fill="#D17355"/>
<path id="Vector_8" d="M139.392 50.5169C139.313 50.4715 139.22 50.4589 139.132 50.4817C139.044 50.5045 138.968 50.5609 138.921 50.6388C136.616 54.7137 138.193 52.1578 128.358 68.0083C125.872 71.8065 122.781 70.2603 122.459 71.0735C121.871 72.8223 120.882 74.4095 119.572 75.7082C119.07 76.1485 117.924 76.9914 117.246 76.3963C116.518 75.7644 116.972 73.7025 117.089 72.8956C117.161 72.2362 117.302 71.586 117.508 70.9556C117.588 70.7591 117.743 70.1448 117.595 70.1488C116.045 70.1428 114.523 70.5506 113.184 71.3302C108.42 73.6559 105.757 78.1928 103.2 82.8187C98.3598 91.5644 94.5752 100.925 91.0095 110.251C90.1274 112.561 89.2524 114.877 88.4327 117.205C88.4171 117.264 88.417 117.326 88.4323 117.384C88.4476 117.443 88.4779 117.497 88.5202 117.541C90.5517 119.533 92.9424 121.122 95.5657 122.223C107.916 127.923 122.118 125.44 134.708 120.113C134.774 120.075 134.825 120.017 134.854 119.946C134.883 119.876 134.888 119.798 134.868 119.725C133.649 114.357 132.608 108.951 131.747 103.515C130.59 96.2079 131.018 90.2018 134.685 83.4378C138.147 77.05 143.96 66.4043 148.794 57.5094C149.075 56.9641 148.54 57.1317 139.392 50.5169ZM139.432 51.4143C141.197 52.6606 137.884 50.2675 147.933 57.5487C147.459 58.447 146.985 59.3452 146.512 60.2434C143.599 58.1941 140.688 56.145 137.778 54.0962C139.106 51.946 139.022 52.0743 139.432 51.4143ZM115.477 71.8234C115.598 71.4481 115.583 71.2564 115.789 71.1016C116.103 71.023 116.421 70.9575 116.743 70.9051C116.517 71.9299 116.358 72.9682 116.267 74.0136C116.187 74.976 116.027 76.58 117.079 77.1053C117.968 77.5496 119.024 77.0091 119.726 76.4637C121.231 75.1347 122.363 73.4349 123.008 71.5331C123.4 71.5805 123.796 71.5732 124.186 71.5114C123.656 74.0844 122.468 76.4759 120.737 78.4518C118.301 81.1113 116.103 80.9789 115.968 81.238C115.732 81.1257 115.585 80.8121 115.275 80.2226C114.168 78.103 114.371 75.4436 115.034 73.1378C115.166 72.6952 115.336 72.2597 115.477 71.8234ZM134.182 82.9013C131.194 88.2747 129.947 94.4426 130.612 100.555C131.443 106.965 132.616 113.326 134.125 119.612C123.906 123.906 112.326 126.429 101.379 123.575C93.1894 121.441 89.4545 117.4 89.1714 117.235C89.158 117.228 89.1462 117.217 89.1369 117.205C89.5218 116.435 96.5954 95.7115 104.413 82.0512C107.021 77.4951 109.751 73.1154 114.93 71.3614C113.673 74.5638 113.116 78.605 115.178 81.3583C115.401 81.655 115.518 81.833 115.88 81.8812C116.961 82.0167 118.579 81.0704 119.438 80.4953C122.432 78.4711 124.344 74.4106 124.927 71.3261C126.6 70.8949 128.043 69.8346 128.955 68.366L137.418 54.6888L146.185 60.8642C142.946 66.7925 134.139 82.9823 134.182 82.9013Z" fill="black"/>
<path id="Vector_9" d="M130.155 48.4108C129.284 48.4108 129.179 48.2231 128.62 47.5431C127.531 46.2224 126.443 44.9 125.356 43.5756L123.734 47.8398C123.631 48.1095 123.596 48.4004 123.631 48.6869C123.667 48.9734 123.772 49.2468 123.938 49.4831C125.557 51.7103 127.954 53.2478 130.653 53.7906C131.317 53.9402 132.011 53.8712 132.633 53.5938C133.254 53.3165 133.769 52.8456 134.101 52.2516L136.267 48.402C135.024 48.406 134.428 48.4108 130.155 48.4108ZM31.7928 46.806C32.6646 46.806 32.7696 46.6192 33.327 45.9383C34.4177 44.6171 35.5063 43.2946 36.5927 41.9708L38.2152 46.235C38.3175 46.505 38.3523 46.796 38.3165 47.0825C38.2808 47.3691 38.1755 47.6425 38.0099 47.8791C36.3913 50.1063 33.9947 51.6437 31.2956 52.1866C30.6317 52.3361 29.9372 52.267 29.3158 51.9896C28.6943 51.7123 28.1791 51.2416 27.847 50.6476L25.6816 46.798C26.9239 46.802 27.5222 46.806 31.7928 46.806Z" fill="#7D4AB4"/>
<path id="Vector_10" d="M140.035 47.935C133.829 40.9304 134.261 41.3803 134.04 41.4212L123.162 40.0578C123.085 40.0183 122.997 40.0081 122.914 40.0291C122.83 40.05 122.757 40.1008 122.709 40.1717C122.293 40.7868 121.731 41.2891 121.073 41.6337C120.415 41.9783 119.682 42.1544 118.939 42.1462C118.708 42.1758 118.473 42.1479 118.255 42.0651C118.036 41.9823 117.842 41.8471 117.688 41.6715C117.353 41.1702 117.331 40.5422 117.047 40.045C116.854 39.7178 116.205 39.7531 116.379 40.211C116.48 40.4813 116.594 40.7468 116.707 41.013C116.457 40.8382 116.209 40.6593 115.961 40.4853C115.599 40.2279 115.255 40.8254 115.617 41.078L116.48 41.6931C116.165 41.7 115.851 41.7216 115.538 41.7581C115.45 41.7623 115.366 41.8005 115.305 41.8646C115.244 41.9288 115.21 42.0139 115.21 42.1025C115.21 42.1911 115.244 42.2763 115.305 42.3404C115.366 42.4046 115.45 42.4427 115.538 42.447C115.924 42.4002 116.313 42.3769 116.702 42.3772C116.59 42.6648 116.456 42.9434 116.301 43.2105C116.255 43.2891 116.243 43.3826 116.266 43.4704C116.289 43.5582 116.347 43.6332 116.425 43.6788C116.504 43.7245 116.597 43.737 116.685 43.7137C116.773 43.6904 116.848 43.6331 116.894 43.5545C117.084 43.2218 117.249 42.8748 117.386 42.5168C118.383 42.8741 119.467 42.9072 120.483 42.6112C121.5 42.3151 122.397 41.7052 123.046 40.8687C124.907 43.1319 126.769 45.3932 128.63 47.6527C129.191 48.3328 129.293 48.5205 130.165 48.5205H139.788C139.855 48.518 139.919 48.4966 139.974 48.4587C140.029 48.4208 140.072 48.368 140.098 48.3065C140.124 48.245 140.132 48.1773 140.121 48.1115C140.11 48.0457 140.08 47.9845 140.035 47.935ZM129.658 47.8436C129.658 47.7634 123.828 40.7612 123.895 40.8414C127.23 41.26 130.565 41.6773 133.901 42.0933L139.028 47.8348C126.716 47.8348 130.296 47.8901 129.658 47.8436Z" fill="black"/>
<path id="Vector_11" d="M144.299 52.3084C142.785 50.4807 144.012 47.3361 145.433 45.4458C145.878 44.8507 146.33 44.9814 146.519 45.3896C146.698 45.8115 146.55 46.1154 146.03 48.1405C147.284 48.4428 147.823 44.6606 149.653 43.1569C149.73 43.0974 149.824 43.0632 149.921 43.0591C150.018 43.055 150.114 43.0811 150.196 43.1339C150.278 43.1866 150.341 43.2634 150.378 43.3537C150.414 43.444 150.421 43.5434 150.399 43.6381C150.349 43.8434 149.4 46.5148 149.627 46.4499C150.603 46.1884 150.804 44.8282 151.641 44.2652C151.713 44.205 151.8 44.1653 151.892 44.1503C151.984 44.1353 152.079 44.1455 152.166 44.18C152.253 44.2144 152.33 44.2717 152.387 44.3459C152.444 44.42 152.48 44.5083 152.491 44.6013C152.713 45.6519 150.749 46.66 150.957 47.9408C152.843 46.9784 153.05 46.7675 153.337 47.0425C153.42 47.1287 153.471 47.2395 153.484 47.3579C153.496 47.4762 153.469 47.5954 153.407 47.697C152.6 49.0635 151.648 50.3395 150.569 51.5032C149.807 52.4531 148.771 53.1456 147.602 53.4865C146.996 53.6014 146.371 53.5528 145.79 53.3458C145.21 53.1387 144.695 52.7806 144.299 52.3084ZM101.159 37.6416C100.317 36.8941 98.1916 37.5285 97.2742 38.13C96.6781 38.5309 96.1847 39.0666 95.834 39.6935C95.4834 40.3205 95.2852 41.0212 95.2555 41.739C95.2291 42.2538 95.3903 44.9084 96.3583 44.7304C97.1081 44.5949 96.6847 42.4102 96.829 41.9002C96.953 41.8878 97.0782 41.9043 97.1948 41.9483C97.3656 42.5979 97.3311 43.2563 97.5316 43.9019C97.7321 44.5475 98.4555 45.3624 99.0048 44.5684C99.3802 44.0238 98.8653 40.2914 99.8068 40.4534C100.748 40.6154 99.8245 44.2813 101.342 43.8803C102.37 43.6052 102.432 40.771 102.304 39.9866C102.209 39.0948 101.804 38.2648 101.159 37.6416ZM105.021 44.6831L105.226 41.6788C105.235 41.5423 105.201 41.4065 105.13 41.2899C105.058 41.1732 104.953 41.0816 104.827 41.0277C104.701 40.9737 104.562 40.9599 104.428 40.9884C104.294 41.0168 104.173 41.086 104.08 41.1864C103.247 42.1227 102.813 43.3478 102.872 44.5997C102.872 44.878 102.98 45.1455 103.173 45.346C103.365 45.5466 103.629 45.6647 103.907 45.6755C104.185 45.6863 104.456 45.589 104.664 45.4039C104.872 45.2189 105 44.9605 105.021 44.6831Z" fill="#D17355"/>
<path id="Vector_12" d="M60.7106 33.9797C60.5493 33.8117 60.3471 33.6884 60.1239 33.6219C59.9007 33.5555 59.664 33.548 59.437 33.6003C58.599 33.78 58.8853 33.7254 54.8336 34.764C54.6349 34.8142 54.4499 34.908 54.292 35.0387C54.1341 35.1693 54.0073 35.3335 53.9208 35.5193C53.8344 35.7051 53.7904 35.9078 53.792 36.1128C53.7937 36.3177 53.841 36.5197 53.9306 36.704C54.0183 36.8826 54.1142 37.0572 54.2185 37.2277C54.6331 37.9078 56.5162 40.0219 57.4802 39.5647C58.8965 38.8887 55.8096 36.696 56.4248 35.963C57.0399 35.23 59.0665 38.4051 59.7073 38.5751C60.6408 38.8229 60.6585 37.733 60.3922 37.1098C60.2743 36.8356 59.0016 35.4666 59.5373 35.1851C60.073 34.9036 60.9111 37.5108 61.8222 36.9815C62.6635 36.4779 61.0691 34.3486 60.7106 33.9797Z" fill="#FFCEB6"/>
<path id="Vector_13" d="M40.9292 34.3592C40.7986 33.4961 40.3953 32.6974 39.7783 32.0799C39.7896 31.962 39.8329 32.1529 39.0846 29.8953C38.9451 29.4767 38.2826 29.6547 38.4222 30.0782C38.5352 30.423 38.6531 30.7719 38.767 31.1159C38.4398 30.8673 38.1086 30.6235 37.7814 30.3749C37.4285 30.1086 37.0836 30.7061 37.4365 30.9676C37.7573 31.2082 38.0861 31.456 38.4093 31.6958C37.9033 31.683 37.3716 31.7222 36.9224 31.7006C36.4733 31.6789 36.4822 32.367 36.9224 32.3847C39.2931 32.5026 39.0421 32.4352 39.3469 32.6638C39.8909 33.178 40.2208 33.8786 40.2708 34.6255C40.2886 35.341 40.158 36.0525 39.8871 36.715C39.6163 37.3776 39.2112 37.9768 38.6973 38.475C26.9617 39.9403 27.7461 39.7991 27.6362 39.9266C25.7307 42.0653 23.8238 44.2018 21.9156 46.3361C21.8699 46.3847 21.8391 46.4453 21.827 46.5109C21.8149 46.5764 21.822 46.6441 21.8474 46.7057C21.8728 46.7674 21.9155 46.8204 21.9702 46.8584C22.025 46.8964 22.0896 46.9178 22.1562 46.92H31.3245C32.1578 46.92 32.5195 47.0379 33.0472 46.3923C33.9872 45.2502 36.7171 41.9412 39.1031 39.0372C39.7403 38.4455 40.2356 37.7174 40.5518 36.9073C40.868 36.0972 40.997 35.2262 40.9292 34.3592ZM33.0336 45.3417C32.793 45.6336 32.5676 45.9648 32.3014 46.2399L22.9237 46.2351L28.0508 40.4936C31.3855 40.075 34.7207 39.6577 38.0565 39.2417C36.3819 41.274 34.7076 43.3073 33.0336 45.3417Z" fill="black"/>
<path id="Vector_14" d="M14.3838 108.289C12.7445 110.5 10.5342 114.705 12.9322 113.355C13.1808 113.216 13.6291 112.466 13.9652 112.666C14.4183 112.932 13.2434 115.09 13.1415 115.452C12.8207 116.575 13.3155 116.691 14.2009 116.006C15.0246 115.364 15.2163 114.314 16.2861 114.07C16.5267 115.173 15.2788 116.412 15.5186 117.584C16.1001 120.391 19.0931 112.667 19.5647 112.579C19.9264 112.509 20.2929 113.18 20.7412 113.721C20.8286 113.825 20.9445 113.902 21.0746 113.942C21.2048 113.982 21.3438 113.984 21.4748 113.946C21.6058 113.909 21.7231 113.834 21.8127 113.732C21.9023 113.629 21.9602 113.503 21.9795 113.368C22.6002 108.696 16.7513 105.096 14.3838 108.289ZM56.4996 42.4592L54.0455 40.7156C53.9342 40.6362 53.8502 40.5242 53.8051 40.3951C53.7601 40.266 53.7561 40.126 53.7938 39.9946C53.8316 39.8631 53.9091 39.7466 54.0158 39.661C54.1224 39.5754 54.253 39.525 54.3895 39.5167C55.6512 39.4765 56.8804 39.921 57.8245 40.7589C58.0448 40.9364 58.1866 41.1933 58.2191 41.4743C58.2517 41.7553 58.1725 42.0379 57.9987 42.261C57.8248 42.4842 57.5701 42.63 57.2897 42.6671C57.0092 42.7041 56.7255 42.6295 56.4996 42.4592Z" fill="#FFCEB6"/>
<path id="Vector_15" d="M47.6099 17.8396C47.4447 17.4338 46.7814 17.6126 46.9475 18.0224C47.9676 20.5471 48.9891 23.0715 50.0119 25.5956C50.1779 26.0006 50.8403 25.8218 50.6751 25.412L47.6099 17.8396ZM52.8766 18.6327C52.8245 18.2013 52.1355 18.1924 52.1917 18.6327C52.3585 20.049 52.7153 21.4364 53.2527 22.7574C53.4187 23.1584 54.0812 22.9835 53.9152 22.5737C53.3917 21.3133 53.0423 19.9875 52.8766 18.6327ZM41.441 19.0426C41.1402 18.7218 40.6558 19.203 40.9598 19.5238C42.8492 21.5549 44.5181 23.7806 45.9386 26.1634C45.986 26.2384 46.0606 26.2921 46.1468 26.3133C46.233 26.3344 46.324 26.3214 46.4008 26.2769C46.4776 26.2324 46.5341 26.1599 46.5586 26.0746C46.5831 25.9893 46.5735 25.8978 46.532 25.8194C45.0782 23.3876 43.3718 21.116 41.441 19.0426ZM60.7914 13.2835C60.392 15.9942 59.8863 18.687 59.2741 21.3619C59.1738 21.7934 59.8355 21.977 59.9373 21.5448C60.5516 18.8715 61.0572 16.1786 61.4539 13.4663C61.5172 13.03 60.8588 12.8424 60.7914 13.2835ZM69.9807 18.7418C69.5408 19.8615 68.9993 20.9385 68.363 21.9594C68.1273 22.3339 68.7199 22.6812 68.9557 22.3035C69.6222 21.2327 70.1861 20.1014 70.6399 18.9247C70.8043 18.5108 70.1403 18.3312 69.9807 18.7418ZM78.756 17.0825C77.0569 19.4751 75.3537 21.8658 73.6466 24.2547C73.3891 24.6164 73.9866 24.9564 74.2392 24.5988C75.9443 22.2094 77.6474 19.8186 79.3487 17.4265C79.6021 17.0681 79.0055 16.724 78.756 17.0825ZM86.0245 33.5001C85.7839 33.1287 85.192 33.4736 85.4318 33.8441C86.1204 34.9143 86.9536 35.8842 87.9076 36.7265C88.2388 37.0184 88.7272 36.534 88.3888 36.2453C87.4794 35.442 86.684 34.5184 86.0245 33.5001ZM89.8348 25.2901C89.5877 24.9276 88.9935 25.2684 89.2421 25.6349C90.5876 27.6074 91.8162 29.657 92.9216 31.7734C93.1269 32.1655 93.7236 31.8167 93.5143 31.4285C92.4077 29.3128 91.1791 27.2632 89.8348 25.2901ZM96.2788 25.9269C96.1304 25.5122 95.4679 25.6911 95.6163 26.1097C96.1135 27.4998 96.6118 28.8899 97.1112 30.2801C97.2596 30.6939 97.9228 30.515 97.7745 30.0964C97.2772 28.7074 96.7787 27.3175 96.2788 25.9269ZM102.335 22.6652V30.7316C102.339 30.8194 102.377 30.9023 102.44 30.963C102.504 31.0236 102.589 31.0575 102.677 31.0575C102.765 31.0575 102.849 31.0236 102.913 30.963C102.977 30.9023 103.014 30.8194 103.019 30.7316V22.6652C103.014 22.5773 102.977 22.4945 102.913 22.4338C102.849 22.3731 102.765 22.3393 102.677 22.3393C102.589 22.3393 102.504 22.3731 102.44 22.4338C102.377 22.4945 102.339 22.5773 102.335 22.6652ZM109.546 27.2132C108.862 28.3895 108.179 29.5679 107.497 30.7484C107.456 30.8267 107.447 30.9176 107.472 31.0022C107.497 31.0869 107.553 31.1588 107.629 31.2032C107.705 31.2475 107.796 31.2608 107.881 31.2404C107.967 31.2199 108.042 31.1672 108.09 31.0933C108.774 29.917 109.457 28.7384 110.139 27.5573C110.184 27.4787 110.197 27.3852 110.174 27.2974C110.15 27.2095 110.093 27.1346 110.014 27.0889C109.936 27.0433 109.842 27.0308 109.755 27.0541C109.667 27.0774 109.592 27.1347 109.546 27.2132Z" fill="#7D4AB4"/>
<path id="Vector_16" d="M125.612 18.3361C125.071 18.1421 124.49 18.0863 123.921 18.174C123.353 18.2617 122.816 18.49 122.359 18.8382C121.53 19.4741 121.169 20.1935 121.923 20.9963C122.35 21.4446 124.338 22.622 123.479 23.1801C123.196 23.363 122.38 23.2018 121.984 23.3855C121.756 23.4732 121.55 23.6096 121.38 23.7852C121.211 23.9608 121.081 24.1712 121.001 24.402C120.921 24.6327 120.892 24.8782 120.917 25.1212C120.941 25.3642 121.018 25.599 121.143 25.8091C121.365 26.1932 121.799 25.8997 121.735 25.465C121.501 23.8811 121.948 24.1626 122.537 23.9172C123.002 23.7905 123.867 23.9541 124.228 23.7728C124.331 23.7216 124.423 23.6502 124.498 23.5628C124.573 23.4753 124.63 23.3737 124.665 23.2639C124.7 23.1542 124.712 23.0385 124.702 22.9238C124.691 22.8091 124.657 22.6977 124.603 22.5963C124.235 21.7422 122.74 21.1744 122.41 20.5031C122.031 19.7356 122.92 19.1822 123.509 18.9729C124.134 18.758 124.814 18.7656 125.434 18.9945C125.851 19.1429 126.03 18.4797 125.612 18.3361Z" fill="#FFD35C"/>
<path id="Vector_17" d="M135.02 21.6283C134.359 21.3912 133.639 21.3729 132.966 21.5762C132.293 21.7795 131.703 22.1936 131.284 22.7575C130.443 24.0784 131.293 24.8932 132.427 25.4842C133.766 26.0007 132.561 26.8869 131.899 26.5782C131.613 26.5184 131.32 26.4949 131.027 26.5084C130.731 26.5399 130.445 26.6377 130.191 26.7948C129.937 26.9518 129.722 27.1639 129.561 27.4154C129.435 27.6337 129.364 27.879 129.353 28.1308C129.342 28.3825 129.392 28.6331 129.499 28.8614C129.605 29.0897 129.766 29.2888 129.966 29.442C130.166 29.5952 130.4 29.6978 130.648 29.7412C131.079 29.815 131.267 29.1566 130.831 29.078C130.661 29.0441 130.505 28.9602 130.382 28.8369C130.26 28.7137 130.178 28.5569 130.145 28.3864C130.113 28.216 130.132 28.0398 130.201 27.8804C130.269 27.721 130.383 27.5856 130.529 27.4916C131.565 26.976 132.309 27.6801 133.256 27.3385C133.498 27.2641 133.705 27.1041 133.838 26.8883C133.971 26.6725 134.021 26.4157 133.978 26.1659C133.857 25.3856 133.12 25.0889 132.505 24.7705C130.557 23.7768 132.448 21.5561 134.838 22.2843C134.922 22.3005 135.009 22.2845 135.082 22.2393C135.155 22.1942 135.208 22.1232 135.231 22.0406C135.254 21.9579 135.245 21.8696 135.206 21.7932C135.167 21.7168 135.101 21.658 135.02 21.6283Z" fill="#F55555"/>
<path id="Vector_18" d="M88.3529 13.6668C91.6883 15.019 88.6448 15.8667 88.3047 16.2958C88.1572 16.4869 88.0668 16.7159 88.0441 16.9563C88.0214 17.1966 88.0672 17.4385 88.1763 17.6539C88.2855 17.8692 88.4534 18.0493 88.6606 18.1732C88.8679 18.297 89.106 18.3596 89.3473 18.3537C90.523 18.4122 88.1107 16.9582 89.2086 16.4658C89.6553 16.2027 90.3787 15.9966 90.6642 15.485C90.8097 15.1937 90.8462 14.86 90.7671 14.5442C90.6879 14.2284 90.4984 13.9513 90.2327 13.7631C89.3505 12.9956 87.2854 13.0958 87.6664 11.4084C88.1475 9.26793 90.9048 9.73869 92.4446 10.0787C92.8761 10.175 93.0589 9.51173 92.6275 9.41629C91.0187 9.05861 89.0747 8.70974 87.7353 9.94801C87.5018 10.1472 87.3114 10.392 87.1758 10.6674C87.0402 10.9428 86.9622 11.2429 86.9467 11.5495C86.9312 11.8561 86.9784 12.1626 87.0854 12.4503C87.1925 12.7379 87.3571 13.0007 87.5693 13.2225C87.8032 13.4143 88.0682 13.5646 88.3529 13.6668ZM34.3564 21.7285C33.8752 21.9506 33.4742 21.7678 33.1438 21.1831C34.5761 18.9231 32.6754 17.291 31.0297 17.8949C30.271 18.174 29.7217 18.7322 28.8643 18.7587C26.3445 18.8301 24.7622 15.5146 29.1956 12.5633C29.5621 12.3227 29.2172 11.726 28.8515 11.9698C27.4208 12.9202 25.9956 14.1545 25.7687 15.9597C25.6806 16.4957 25.7381 17.0454 25.9352 17.5515C26.1324 18.0575 26.4619 18.5013 26.8893 18.8364C27.3167 19.1715 27.8263 19.3856 28.3647 19.4563C28.9032 19.527 29.4508 19.4517 29.9502 19.2383C30.3512 19.0939 30.6648 18.806 31.0482 18.6448C31.2274 18.5385 31.4306 18.4791 31.6389 18.4723C31.8471 18.4655 32.0538 18.5114 32.2395 18.6058C32.4253 18.7002 32.5842 18.8401 32.7015 19.0123C32.8188 19.1846 32.8906 19.3837 32.9104 19.5912C32.9414 19.7854 32.933 19.9839 32.8857 20.1749C32.8385 20.3658 32.7533 20.5453 32.6353 20.7027C31.8814 22.1936 33.2328 22.7478 34.5408 22.3869C34.6192 22.3551 34.6831 22.2956 34.7204 22.2196C34.7577 22.1437 34.7656 22.0567 34.7428 21.9753C34.72 21.8938 34.668 21.8236 34.5967 21.7781C34.5254 21.7326 34.4399 21.7149 34.3564 21.7285Z" fill="#FFD35C"/>
<path id="Vector_19" d="M18.0064 29.5134C16.5708 29.6738 16.643 28.9239 16.9157 28.4756C17.1986 27.9592 17.3932 27.3992 17.4915 26.8187C17.5153 26.534 17.4396 26.2499 17.2772 26.0148C17.1149 25.7798 16.876 25.6084 16.6013 25.5299C15.6157 25.2508 14.5651 26.4025 13.6973 25.8507C12.2281 24.9091 13.4968 23.0782 14.2338 22.1142C14.4993 21.7613 13.9066 21.4213 13.6404 21.7701C12.8207 22.8472 11.9313 24.1857 12.5593 25.5676C12.6564 25.8019 12.8008 26.0137 12.9834 26.1897C13.166 26.3657 13.383 26.5022 13.6208 26.5906C13.8586 26.6789 14.112 26.7173 14.3653 26.7033C14.6185 26.6893 14.8662 26.6232 15.0928 26.5091C15.5547 26.3351 16.797 25.6197 16.7769 27.0368C16.7769 27.4378 16.3888 27.8869 16.2541 28.2575C16.1373 28.4912 16.0751 28.7484 16.072 29.0097C16.069 29.271 16.1252 29.5296 16.2364 29.766C16.3564 29.9461 16.5145 30.0975 16.6996 30.2096C16.8846 30.3217 17.0921 30.3917 17.3072 30.4147C17.5224 30.4376 17.7399 30.413 17.9445 30.3425C18.149 30.2719 18.3355 30.1573 18.4908 30.0066C18.8212 29.7067 18.3328 29.2231 18.0064 29.5134ZM17.3127 41.2778C17.1354 41.2778 16.5051 40.2705 15.4769 40.7637C15.2508 40.8728 15.1064 41.1166 14.8931 41.2257C13.8385 41.7614 13.6307 40.6097 12.9875 40.1446C12.3203 39.6634 11.7404 39.9657 11.2392 40.5327C10.7949 41.034 10.4853 41.7357 9.89666 42.0886C8.14351 43.148 7.58131 40.645 7.66392 39.499C7.6952 39.0587 7.0103 39.0587 6.97982 39.499C6.88358 40.7942 7.1715 42.3059 8.52285 42.8433C9.8309 43.3622 10.677 42.3765 11.3964 41.4478C11.7629 40.973 12.1029 40.4052 12.7221 40.8287C13.1231 41.1086 13.7743 42.9299 15.185 41.8929C16.4489 40.7918 16.5716 41.9041 17.182 42.1415C17.4057 42.2217 17.7586 41.9683 17.6439 41.5352C17.6229 41.4628 17.5796 41.3989 17.5201 41.3527C17.4606 41.3065 17.388 41.2802 17.3127 41.2778Z" fill="#F55555"/>
<path id="Vector_20" d="M16.9905 64.6118C16.9248 64.5685 16.8598 64.5316 16.7941 64.4851C16.5811 64.3699 16.3432 64.3088 16.1011 64.3071C15.933 64.3036 15.766 64.3351 15.6107 64.3996C15.4554 64.4641 15.3151 64.5601 15.1989 64.6816C15.02 64.8604 14.9631 65.1347 14.7979 65.3096C13.9807 66.1605 13.3976 65.1403 12.6445 64.9086C11.8554 64.6736 11.4103 65.1532 11.1208 65.8501C10.9635 66.5202 10.7093 67.1638 10.3661 67.7604C9.05804 69.338 7.70268 67.163 7.40594 66.0514C7.29286 65.6239 6.64324 65.8549 6.75633 66.2776C7.09156 67.5287 7.86388 68.8672 9.31548 68.9241C10.719 68.9811 11.1945 67.7733 11.5651 66.6569C11.7527 66.0859 11.8859 65.4363 12.6077 65.6328C12.8499 65.7457 13.0769 65.8891 13.2829 66.0594C14.3704 66.7227 14.9431 66.5663 15.5333 65.3537C16.0257 64.9527 16.4572 64.9439 16.8325 65.3096C16.9715 65.3474 17.1126 65.3766 17.2552 65.397C17.3159 65.3935 17.3746 65.374 17.4252 65.3403C17.4758 65.3066 17.5165 65.26 17.5431 65.2053C17.5886 65.1216 17.6078 65.0261 17.5984 64.9313C17.5889 64.8365 17.5512 64.7467 17.4902 64.6736C17.4288 64.6041 17.3441 64.5595 17.252 64.5481C17.16 64.5368 17.067 64.5594 16.9905 64.6118ZM149.451 32.3357C148.923 32.0993 148.366 31.9337 147.795 31.8433C147.359 31.9347 147.241 32.2314 147.102 32.606C146.753 33.5306 146.526 34.7384 145.192 34.2099C144.577 33.9693 144.093 33.4472 143.474 33.1898C142.681 32.8626 141.861 32.9107 141.482 33.7648C141.314 34.3082 141.233 34.8747 141.241 35.4434C141.161 36.2414 140.583 36.9568 139.698 36.7426C139.047 36.4982 138.48 36.0734 138.063 35.518C137.758 35.1972 137.274 35.6832 137.582 35.9992C138.532 36.9977 140.38 38.3322 141.531 36.7843C141.854 36.1845 142.005 35.507 141.967 34.8267C141.983 34.5588 142.088 34.304 142.266 34.1031C142.444 33.9023 142.684 33.767 142.948 33.7191C143.28 33.7007 144.311 34.5347 144.849 34.7962C146.105 35.4065 147.112 34.7697 147.552 33.5186C147.779 32.877 147.81 32.533 148.529 32.8081C148.816 32.9211 149 33.1353 149.331 33.1289C149.438 33.1319 149.544 33.1133 149.643 33.0742C149.742 33.0351 149.832 32.9763 149.908 32.9013C149.984 32.8263 150.044 32.7368 150.084 32.638C150.124 32.5393 150.144 32.4334 150.142 32.3269C150.171 31.8954 149.482 31.8954 149.451 32.3357Z" fill="#FFD35C"/>
<path id="Vector_21" d="M26.7354 31.3588C26.7354 31.6317 26.8438 31.8934 27.0367 32.0864C27.2297 32.2793 27.4914 32.3877 27.7643 32.3877C28.0372 32.3877 28.2989 32.2793 28.4919 32.0864C28.6849 31.8934 28.7933 31.6317 28.7933 31.3588C28.7933 31.0859 28.6849 30.8242 28.4919 30.6312C28.2989 30.4382 28.0372 30.3298 27.7643 30.3298C27.4914 30.3298 27.2297 30.4382 27.0367 30.6312C26.8438 30.8242 26.7354 31.0859 26.7354 31.3588Z" fill="#F55555"/>
<path id="Vector_22" d="M9.56934 48.7508C9.56934 49.0237 9.67774 49.2854 9.87071 49.4783C10.0637 49.6713 10.3254 49.7797 10.5983 49.7797C10.8712 49.7797 11.1329 49.6713 11.3259 49.4783C11.5188 49.2854 11.6272 49.0237 11.6272 48.7508C11.6272 48.6156 11.6006 48.4818 11.5489 48.357C11.4972 48.2322 11.4214 48.1187 11.3259 48.0232C11.2303 47.9276 11.1169 47.8518 10.9921 47.8001C10.8672 47.7484 10.7334 47.7218 10.5983 47.7218C10.4632 47.7218 10.3294 47.7484 10.2045 47.8001C10.0797 47.8518 9.96626 47.9276 9.87071 48.0232C9.77516 48.1187 9.69937 48.2322 9.64766 48.357C9.59595 48.4818 9.56934 48.6156 9.56934 48.7508Z" fill="#F55555"/>
<path id="Vector_23" d="M5.90723 30.4438C5.90723 30.5789 5.93384 30.7127 5.98555 30.8375C6.03726 30.9624 6.11305 31.0758 6.2086 31.1713C6.30415 31.2669 6.41758 31.3427 6.54242 31.3944C6.66726 31.4461 6.80106 31.4727 6.93618 31.4727C7.07131 31.4727 7.20511 31.4461 7.32995 31.3944C7.45478 31.3427 7.56822 31.2669 7.66376 31.1713C7.75931 31.0758 7.8351 30.9624 7.88681 30.8375C7.93852 30.7127 7.96514 30.5789 7.96514 30.4438C7.96514 30.1709 7.85673 29.9091 7.66376 29.7162C7.4708 29.5232 7.20908 29.4148 6.93618 29.4148C6.66329 29.4148 6.40157 29.5232 6.2086 29.7162C6.01563 29.9091 5.90723 30.1709 5.90723 30.4438Z" fill="#F55555"/>
<path id="Vector_24" d="M114.159 18.9993C114.159 19.2722 114.268 19.5339 114.461 19.7269C114.654 19.9198 114.915 20.0282 115.188 20.0282C115.461 20.0282 115.723 19.9198 115.916 19.7269C116.109 19.5339 116.217 19.2722 116.217 18.9993C116.217 18.7264 116.109 18.4647 115.916 18.2717C115.723 18.0787 115.461 17.9703 115.188 17.9703C114.915 17.9703 114.654 18.0787 114.461 18.2717C114.268 18.4647 114.159 18.7264 114.159 18.9993Z" fill="#F55555"/>
<path id="Vector_25" d="M124.117 33.9927C124.32 33.9927 124.519 34.053 124.688 34.1661C124.858 34.2791 124.99 34.4399 125.067 34.6279C125.145 34.8159 125.166 35.0228 125.126 35.2224C125.086 35.422 124.988 35.6053 124.844 35.7492C124.701 35.8931 124.517 35.9911 124.318 36.0308C124.118 36.0705 123.911 36.0501 123.723 35.9723C123.535 35.8944 123.374 35.7625 123.261 35.5933C123.148 35.4241 123.088 35.2251 123.088 35.0216C123.088 34.7487 123.196 34.487 123.389 34.294C123.582 34.1011 123.844 33.9927 124.117 33.9927Z" fill="#F55555"/>
<path id="Vector_26" d="M78.002 43.9461C78.002 44.219 78.1104 44.4807 78.3033 44.6736C78.4963 44.8666 78.758 44.975 79.0309 44.975C79.3038 44.975 79.5655 44.8666 79.7585 44.6736C79.9515 44.4807 80.0599 44.219 80.0599 43.9461C80.0599 43.6732 79.9515 43.4115 79.7585 43.2185C79.5655 43.0255 79.3038 42.9171 79.0309 42.9171C78.758 42.9171 78.4963 43.0255 78.3033 43.2185C78.1104 43.4115 78.002 43.6732 78.002 43.9461Z" fill="#F55555"/>
<path id="Vector_27" d="M64.7275 5.03909C64.7275 5.31198 64.8359 5.5737 65.0289 5.76667C65.2219 5.95963 65.4836 6.06804 65.7565 6.06804C66.0294 6.06804 66.2911 5.95963 66.4841 5.76667C66.677 5.5737 66.7855 5.31198 66.7855 5.03909C66.7855 4.76619 66.677 4.50447 66.4841 4.31151C66.2911 4.11854 66.0294 4.01013 65.7565 4.01013C65.4836 4.01013 65.2219 4.11854 65.0289 4.31151C64.8359 4.50447 64.7275 4.76619 64.7275 5.03909Z" fill="#F55555"/>
<path id="Vector_28" d="M152.037 19.5743C152.24 19.5743 152.439 19.6347 152.608 19.7478C152.778 19.8608 152.91 20.0215 152.987 20.2095C153.065 20.3975 153.086 20.6044 153.046 20.804C153.006 21.0036 152.908 21.187 152.764 21.3309C152.62 21.4748 152.437 21.5728 152.238 21.6125C152.038 21.6522 151.831 21.6318 151.643 21.5539C151.455 21.476 151.294 21.3442 151.181 21.175C151.068 21.0057 151.008 20.8068 151.008 20.6033C151.008 20.3304 151.116 20.0687 151.309 19.8757C151.502 19.6827 151.764 19.5743 152.037 19.5743Z" fill="#F55555"/>
<path id="Vector_29" d="M20.6614 14.4127C21.1649 14.3814 21.6598 14.2679 22.1266 14.0767C22.1609 14.0677 22.1972 14.0703 22.2298 14.0841C22.2625 14.0979 22.2896 14.1222 22.307 14.1531C22.3244 14.1839 22.3311 14.2197 22.3261 14.2548C22.321 14.2899 22.3044 14.3223 22.279 14.347C21.9349 14.687 21.2589 15.0447 21.1931 15.5764C21.2263 16.0785 21.3411 16.5718 21.5331 17.0368C21.6133 17.3512 21.25 17.1812 21.1538 17.0809C20.9228 16.8403 20.7007 16.5877 20.4521 16.3592C20.3783 16.279 20.2564 16.0977 20.1473 16.0624C19.8265 15.9582 19.0574 16.311 18.7254 16.3985C18.5947 16.4329 18.1896 16.3985 18.4246 16.1675C18.7612 15.8654 19.0824 15.5466 19.387 15.2123C19.602 14.9541 19.5667 15.0519 19.1689 13.4816C19.1599 13.4473 19.1625 13.411 19.1763 13.3784C19.1901 13.3458 19.2144 13.3186 19.2453 13.3012C19.2761 13.2838 19.3119 13.2771 19.347 13.2822C19.3821 13.2872 19.4145 13.3038 19.4391 13.3292C20.4561 14.3614 20.3783 14.3758 20.6614 14.4127ZM16.7725 54.9197C17.2759 54.8885 17.7709 54.7753 18.2378 54.5845C18.272 54.5755 18.3083 54.5781 18.341 54.5919C18.3736 54.6057 18.4008 54.63 18.4182 54.6608C18.4356 54.6917 18.4423 54.7275 18.4372 54.7626C18.4321 54.7976 18.4156 54.8301 18.3901 54.8547C18.0453 55.1948 17.37 55.5517 17.3042 56.0842C17.3376 56.5862 17.4524 57.0795 17.6443 57.5446C17.7245 57.8582 17.3612 57.6882 17.265 57.5879C17.034 57.3473 16.8118 57.0955 16.5632 56.8661C16.4894 56.7859 16.3667 56.6047 16.2585 56.5702C15.9377 56.4651 15.1677 56.818 14.8365 56.9054C14.7058 56.9407 14.3008 56.9054 14.5358 56.6745C14.8727 56.3728 15.1939 56.0539 15.4982 55.7193C15.7131 55.461 15.6778 55.5589 15.28 53.9886C15.271 53.9543 15.2737 53.918 15.2875 53.8854C15.3013 53.8527 15.3255 53.8256 15.3564 53.8082C15.3873 53.7908 15.423 53.7841 15.4581 53.7892C15.4932 53.7942 15.5256 53.8108 15.5503 53.8362C16.5656 54.8668 16.4886 54.8828 16.7725 54.9197ZM81.7691 24.0214C82.2721 23.9873 82.7666 23.8741 83.2343 23.6861C83.2686 23.6772 83.3049 23.6798 83.3376 23.6936C83.3702 23.7074 83.3973 23.7316 83.4147 23.7625C83.4322 23.7934 83.4389 23.8292 83.4338 23.8642C83.4287 23.8993 83.4122 23.9317 83.3867 23.9564C83.0419 24.2965 82.3666 24.6542 82.3016 25.1859C82.3343 25.6879 82.4489 26.1812 82.6409 26.6463C82.7211 26.9599 82.3578 26.7899 82.2615 26.6896C82.0314 26.449 81.8084 26.1972 81.5606 25.9678C81.486 25.8876 81.3633 25.7064 81.255 25.6719C80.9342 25.5668 80.1643 25.9205 79.8339 26.0071C79.7032 26.0424 79.2974 26.0071 79.5323 25.7761C79.8695 25.4749 80.1907 25.1564 80.4947 24.8218C80.7097 24.5627 80.6744 24.6614 80.2766 23.0903C80.2676 23.056 80.2702 23.0197 80.284 22.987C80.2979 22.9544 80.3221 22.9273 80.353 22.9099C80.3839 22.8925 80.4196 22.8858 80.4547 22.8908C80.4898 22.8959 80.5222 22.9125 80.5469 22.9379C81.563 23.9717 81.494 23.9901 81.7691 24.0214ZM144.704 22.1952C145.207 22.164 145.702 22.0505 146.168 21.8592C146.203 21.8499 146.239 21.8524 146.272 21.8661C146.305 21.8798 146.332 21.904 146.35 21.935C146.367 21.9659 146.374 22.0018 146.369 22.037C146.364 22.0723 146.347 22.1048 146.321 22.1295C145.977 22.4695 145.301 22.8272 145.235 23.3589C145.269 23.8609 145.384 24.3541 145.576 24.8194C145.656 25.1337 145.292 24.9637 145.196 24.8635C144.965 24.6229 144.743 24.3702 144.494 24.1417C144.421 24.0615 144.298 23.8794 144.189 23.8449C143.868 23.7399 143.099 24.0936 142.768 24.181C142.637 24.2155 142.232 24.181 142.467 23.9492C142.804 23.6476 143.125 23.329 143.429 22.9948C143.649 22.7302 143.603 22.8112 143.211 21.2641C143.202 21.2299 143.205 21.1938 143.219 21.1612C143.232 21.1286 143.256 21.1015 143.287 21.084C143.318 21.0666 143.354 21.0597 143.389 21.0646C143.424 21.0695 143.456 21.0858 143.481 21.111C144.495 22.1391 144.417 22.1576 144.704 22.1952ZM107.17 6.17547C107.673 6.14446 108.168 6.03122 108.634 5.84023C108.669 5.83096 108.705 5.83338 108.738 5.84709C108.771 5.86081 108.798 5.88505 108.816 5.916C108.833 5.94695 108.84 5.98286 108.835 6.01807C108.83 6.05328 108.813 6.0858 108.787 6.1105C108.443 6.45055 107.766 6.80743 107.701 7.33996C107.735 7.84194 107.85 8.33514 108.042 8.80038C108.122 9.11396 107.758 8.94394 107.663 8.84369C107.431 8.60309 107.209 8.35127 106.96 8.1219C106.887 8.0417 106.764 7.86045 106.655 7.82596C106.334 7.7209 105.565 8.07378 105.235 8.1612C105.103 8.19648 104.697 8.1612 104.933 7.93022C105.27 7.62873 105.591 7.30991 105.895 6.97505C106.115 6.712 106.07 6.79139 105.677 5.24435C105.668 5.20991 105.67 5.17334 105.684 5.14044C105.698 5.10753 105.722 5.08018 105.754 5.06269C105.785 5.04521 105.821 5.03859 105.856 5.0439C105.891 5.0492 105.924 5.06612 105.948 5.09197C106.948 6.10248 106.884 6.13537 107.17 6.17547Z" fill="#7D4AB4"/>
<path id="Vector_30" d="M126.196 58.8094C126.687 58.9305 126.987 59.5865 127.098 60.1727C127.178 60.6082 127.84 60.4214 127.761 59.9891C127.72 59.5858 127.569 59.2015 127.325 58.8773C127.082 58.5532 126.754 58.3015 126.379 58.1493C126.294 58.1345 126.208 58.1517 126.135 58.1973C126.063 58.243 126.01 58.314 125.988 58.3964C125.965 58.4788 125.973 58.5667 126.012 58.6431C126.05 58.7194 126.116 58.7787 126.196 58.8094ZM120.628 57.2174C120.372 57.4219 120.962 56.717 122.18 57.3048C122.581 57.4965 122.926 56.9038 122.525 56.7114C122.165 56.4918 121.751 56.3771 121.33 56.3802C120.909 56.3833 120.496 56.5041 120.14 56.729C119.796 57.0041 120.283 57.4877 120.628 57.2174ZM120.223 58.9353C120.503 58.9353 120.895 59.2007 121.029 59.8295C121.122 60.261 121.783 60.0781 121.692 59.6458C121.639 59.2816 121.465 58.9458 121.197 58.6928C120.93 58.4397 120.585 58.2841 120.219 58.2512C120.131 58.2559 120.048 58.2943 119.988 58.3583C119.927 58.4224 119.894 58.5072 119.895 58.5951C119.895 58.6831 119.929 58.7675 119.99 58.8308C120.052 58.8942 120.135 58.9316 120.223 58.9353ZM126.196 60.7662C125.914 60.5278 125.56 60.3904 125.191 60.3759C124.823 60.3613 124.459 60.4705 124.16 60.686C123.78 60.913 124.129 61.5105 124.504 61.2795C124.671 61.1364 124.882 61.0555 125.101 61.0507C125.321 61.0459 125.535 61.1174 125.707 61.253C125.773 61.3104 125.859 61.3407 125.946 61.3378C126.033 61.3348 126.116 61.2989 126.178 61.2371C126.24 61.1754 126.276 61.0925 126.28 61.0051C126.283 60.9177 126.253 60.8324 126.196 60.7662Z" fill="black"/>
<path id="Vector_31" d="M119.996 61.5681C120.703 62.1922 121.557 62.6249 122.478 62.825C123.399 63.025 124.356 62.9858 125.258 62.711C125.258 62.711 124.116 64.9998 122.05 64.5419C119.984 64.084 119.996 61.5681 119.996 61.5681Z" fill="#FFB5B5"/>
<path id="Vector_32" d="M48.0107 66.9793C48.8282 65.833 49.3447 64.4997 49.5129 63.1018C49.6811 61.7039 49.4954 60.2861 48.9731 58.9786C47.43 54.7674 43.2926 52.4087 39.7301 53.7119C35.7907 55.1555 34.4987 60.2193 36.2864 64.218C35.9231 64.3407 35.6048 64.5691 35.3722 64.8739C35.1396 65.1787 35.0033 65.546 34.9809 65.9287C34.9584 66.3114 35.0507 66.6922 35.246 67.0221C35.4413 67.352 35.7307 67.6161 36.0771 67.7805C36.4654 67.9599 36.9028 68.0033 37.3188 67.9036C37.7348 67.804 38.1051 67.567 38.3699 67.2311C39.6604 68.5112 41.3848 69.2597 43.2011 69.3283L44.2165 71.5121C44.8518 72.8769 45.83 74.0537 47.0557 74.9278C48.2813 75.8019 49.7125 76.3435 51.2098 76.4997L52.339 76.6176C52.397 76.6232 52.4554 76.6132 52.5082 76.5885C52.5609 76.5638 52.6061 76.5254 52.6388 76.4772C52.6716 76.4291 52.6909 76.373 52.6946 76.3149C52.6983 76.2568 52.6863 76.1987 52.6598 76.1468L48.0107 66.9793Z" fill="#FFCEB6"/>
<path id="Vector_33" d="M36.2864 64.2148C33.3672 57.5189 38.7814 51.2041 44.648 54.0391C44.304 53.3975 42.1025 49.6137 38.7454 50.2417C35.0827 50.9266 26.843 55.9623 29.8208 56.8774H31.197C31.197 56.8774 28.4502 60.3091 30.97 60.7662C36.0402 61.6869 28.8568 62.5234 31.659 66.2599C32.2476 67.045 33.8308 67.2848 35.4436 67.2976C35.2371 67.0587 35.0926 66.7726 35.0228 66.4646C34.953 66.1566 34.96 65.8362 35.0433 65.5315C35.1266 65.2269 35.2836 64.9475 35.5003 64.7178C35.7171 64.4882 35.9871 64.3154 36.2864 64.2148Z" fill="#7D4AB4"/>
<path id="Vector_34" d="M39.2297 57.231C37.811 57.7747 37.1766 59.345 37.1445 60.7662C37.1488 60.854 37.1867 60.9369 37.2504 60.9975C37.314 61.0582 37.3986 61.0921 37.4866 61.0921C37.5745 61.0921 37.6591 61.0582 37.7228 60.9975C37.7865 60.9369 37.8244 60.854 37.8286 60.7662C37.8824 58.1196 39.9138 57.6986 39.407 57.8934C39.8184 57.7362 39.6435 57.0722 39.2297 57.231ZM39.4479 61.1239C39.6809 60.8782 39.97 60.6927 40.2904 60.5834C40.6109 60.474 40.953 60.444 41.2876 60.4959C41.7191 60.5921 41.9027 59.9297 41.4705 59.8335C41.0179 59.7506 40.5518 59.7809 40.1137 59.9216C39.6756 60.0624 39.2791 60.3093 38.9594 60.6403C38.6499 60.9514 39.1375 61.4326 39.4479 61.1239ZM42.9662 55.7088C43.4107 55.5317 43.8886 55.4542 44.3662 55.4819C44.8439 55.5096 45.3097 55.6418 45.7307 55.8692C46.1276 56.0569 46.4765 55.4682 46.0747 55.2765C45.5473 54.9924 44.9627 54.8304 44.3643 54.8026C43.7658 54.7749 43.1688 54.882 42.6173 55.1161C42.2163 55.295 42.5652 55.8877 42.9662 55.7088ZM45.4467 56.4065C45.0051 56.7828 44.675 57.2729 44.4924 57.8237C44.3528 58.2423 45.0153 58.4252 45.1548 58.0065C45.3073 57.5711 45.5774 57.1863 45.9352 56.895C46.2752 56.6111 45.7836 56.1283 45.4467 56.4065Z" fill="black"/>
<path id="Vector_35" d="M41.4961 58.5952L43.1001 57.4531C43.1001 57.4531 45.158 59.0531 44.7 59.9682C44.2421 60.8832 41.4961 58.5952 41.4961 58.5952ZM43.21 63.513C43.21 63.513 46.1829 63.7399 46.8718 61.2241C46.8542 61.2898 47.0242 61.5601 47.0507 61.6251C48.3796 65.036 44.2285 65.8027 43.21 63.513Z" fill="#F55555"/>
<path id="Vector_36" d="M32.1355 55.068C32.4727 54.872 32.7945 54.6505 33.0979 54.4055C33.3201 54.2275 33.0442 53.7888 32.7314 54.039C32.4604 54.2555 32.1733 54.4509 31.8725 54.6237C31.8153 54.6594 31.7744 54.7161 31.7584 54.7816C31.7425 54.8471 31.7528 54.9162 31.7871 54.9742C31.8215 55.0323 31.8771 55.0745 31.9422 55.092C32.0073 55.1096 32.0767 55.1009 32.1355 55.068ZM35.7589 53.5594C36.0011 53.371 36.2577 53.2021 36.5264 53.0542C36.8144 52.8938 36.5569 52.4479 36.265 52.6091C35.9612 52.7829 35.6711 52.9797 35.3972 53.1977C35.3725 53.2213 35.3528 53.2495 35.3392 53.2808C35.3255 53.312 35.3183 53.3457 35.3179 53.3799C35.3175 53.414 35.3239 53.4478 35.3367 53.4794C35.3496 53.511 35.3687 53.5398 35.3928 53.5639C35.4169 53.588 35.4456 53.6071 35.4772 53.6199C35.5088 53.6328 35.5427 53.6392 35.5768 53.6388C35.6109 53.6384 35.6446 53.6311 35.6759 53.6175C35.7072 53.6039 35.7354 53.5841 35.7589 53.5594ZM33.0418 57.0473C33.4428 56.765 33.8526 56.4859 34.2713 56.2236C34.5503 56.0448 34.2929 55.5997 34.0098 55.7785C33.5912 56.0459 33.1813 56.3207 32.7803 56.603C32.5149 56.7947 32.7683 57.2398 33.0418 57.0473ZM33.0907 59.1966C33.4172 59.0279 33.723 58.8217 34.0018 58.5823C34.2544 58.3682 33.8887 58.0065 33.6353 58.2158C33.3889 58.4242 33.1199 58.6041 32.8333 58.7523C32.5325 58.9047 32.7948 59.3474 33.0907 59.1966ZM33.2607 64.3109C33.5492 63.9989 33.8918 63.7418 34.2721 63.5522C34.5688 63.4039 34.3073 62.9596 34.0106 63.1079C33.5924 63.3214 33.2146 63.606 32.8942 63.9492C32.6721 64.189 33.0338 64.5547 33.2607 64.3109ZM38.6557 53.0365C39.1325 52.8786 39.6009 52.6966 40.0592 52.4912C40.36 52.3564 40.0985 51.9113 39.7978 52.0469C39.3787 52.2326 38.9504 52.397 38.5146 52.5393C38.205 52.6435 38.3398 53.14 38.6557 53.0365ZM75.9965 104.575C71.381 96.5221 61.6143 80.1141 55.5457 73.0695C53.3699 70.5416 52.5631 69.6361 49.7385 70.0748C49.723 70.0774 49.7085 70.0836 49.6959 70.093C49.6834 70.1023 49.6733 70.1145 49.6665 70.1286C49.6596 70.1426 49.6563 70.1581 49.6567 70.1737C49.657 70.1894 49.6612 70.2047 49.6687 70.2184C49.9574 70.7453 50.1571 71.3732 50.3103 71.7229C50.5846 72.3396 50.2164 71.4735 52.1982 75.7425C52.2838 75.9827 52.3912 76.2147 52.519 76.4354C50.6631 76.387 48.8561 75.8302 47.2948 74.8258C44.3523 72.885 44.495 70.8872 43.7508 71.0942C23.9793 76.5798 13.2976 102.423 13.3665 102.717C13.5788 103.067 13.8369 103.386 14.134 103.668C18.7335 108.532 25.9233 108.017 26.4462 106.963C26.7365 106.576 30.1586 95.1162 37.2891 92.0462C37.2827 93.4284 37.1322 94.8062 36.84 96.1572C35.2417 104.882 30.3968 114.362 25.7533 121.924C25.7255 121.969 25.7088 122.02 25.7043 122.073C25.6999 122.126 25.708 122.179 25.7279 122.229C25.7478 122.278 25.7789 122.322 25.8188 122.357C25.8588 122.392 25.9064 122.417 25.9578 122.43C38.3085 125.625 55.2 124.661 66.0253 117.072C72.3747 112.626 76.2362 105.779 76.2707 105.252C76.2493 105.004 76.1537 104.768 75.9965 104.575ZM43.5607 72.0325C45.4005 75.3936 49.3351 77.2029 53.0563 77.1291C53.1161 77.1281 53.1747 77.1116 53.2262 77.0812C53.2778 77.0508 53.3206 77.0076 53.3505 76.9557C53.3803 76.9039 53.3963 76.8452 53.3967 76.7853C53.3972 76.7255 53.3821 76.6665 53.353 76.6143C52.4944 74.7531 51.637 72.893 50.781 71.034C51.6849 70.8127 52.053 70.8159 52.555 71.1343C52.5951 71.1888 54.6883 76.1643 56.0124 79.2913C54.3229 79.6403 52.5825 79.6654 50.8837 79.3651C48.9746 79.0306 47.1797 78.2235 45.6626 77.0173C44.1454 75.8112 42.9544 74.2444 42.1981 72.4599C42.6521 72.3156 43.1076 72.1792 43.5607 72.0325ZM25.775 106.693C25.5344 106.593 22.5293 107.538 19.1521 106.196C17.1961 105.427 15.4583 104.191 14.0907 102.595C14.7211 101.261 15.2135 100.204 15.7645 99.1334C17.731 102.813 22.5967 104.352 26.5818 104.726C26.3493 105.396 26.0799 106.053 25.775 106.693ZM74.1695 107.557C64.4582 122.875 44.1029 125.806 26.5906 121.879C31.4378 113.933 37.3236 102.254 37.9339 93.0992C37.9809 92.583 37.9881 92.0639 37.9556 91.5465C37.9388 91.346 37.7471 91.1287 37.5201 91.2153C32.3016 93.1922 28.9749 98.9273 26.86 104.064C22.9672 103.743 17.8224 102.224 16.1607 98.3795C21.7746 87.5093 29.8338 76.8861 41.5036 72.5554C42.2693 74.4464 43.4943 76.1168 45.0678 77.4154C46.6413 78.714 48.5136 79.5999 50.5156 79.993C52.5257 80.3873 54.597 80.3444 56.5891 79.8671C56.6391 79.8518 56.685 79.8255 56.7236 79.7902C56.7622 79.7549 56.7924 79.7113 56.8119 79.6629C56.8315 79.6144 56.8401 79.5621 56.8369 79.5099C56.8337 79.4577 56.8189 79.4068 56.7936 79.3611C53.8126 72.31 54.1606 73.1801 53.8262 72.2105C60.1467 78.4925 75.4639 104.738 75.5602 105.189C75.6275 105.515 74.2722 107.391 74.1695 107.557Z" fill="black"/>
<path id="Vector_37" d="M139.433 51.4142C141.198 52.6605 137.886 50.2673 147.935 57.5486C147.46 58.4468 146.986 59.3451 146.513 60.2433C143.601 58.1939 140.689 56.1449 137.78 54.096C139.107 51.9459 139.024 52.0742 139.433 51.4142ZM115.478 71.8233C115.599 71.4479 115.585 71.2563 115.79 71.1015C116.104 71.0229 116.422 70.9574 116.744 70.905C116.518 71.9297 116.36 72.9681 116.269 74.0135C116.189 74.9759 116.028 76.5799 117.08 77.1052C117.97 77.5495 119.025 77.0089 119.727 76.4636C121.233 75.1346 122.364 73.4347 123.009 71.5329C123.401 71.5804 123.797 71.5731 124.187 71.5113C123.658 74.0843 122.469 76.4758 120.738 78.4517C118.303 81.1111 116.104 80.9788 115.97 81.2378C115.733 81.1256 115.586 80.812 115.276 80.2225C114.169 78.1029 114.372 75.4435 115.035 73.1377C115.167 72.695 115.337 72.2595 115.478 71.8233ZM43.5618 72.0326C45.4015 75.3937 49.3361 77.203 53.0574 77.1292C53.1172 77.1282 53.1757 77.1117 53.2273 77.0813C53.2788 77.0509 53.3216 77.0077 53.3515 76.9558C53.3814 76.904 53.3973 76.8453 53.3978 76.7854C53.3982 76.7256 53.3832 76.6667 53.3541 76.6144C52.4954 74.7532 51.6381 72.8931 50.7821 71.0341C51.6859 70.8128 52.0541 70.816 52.5561 71.1343C52.5962 71.1889 54.6894 76.1644 56.0135 79.2914C54.324 79.6405 52.5836 79.6655 50.8848 79.3652C48.9757 79.0307 47.1807 78.2236 45.6636 77.0174C44.1465 75.8113 42.9555 74.2445 42.1992 72.46C42.6531 72.3157 43.1087 72.1793 43.5618 72.0326ZM25.776 106.693C25.5354 106.593 22.5304 107.538 19.1532 106.196C17.1972 105.427 15.4594 104.191 14.0918 102.595C14.7222 101.261 15.2146 100.204 15.7656 99.1335C17.732 102.813 22.5977 104.352 26.5828 104.727C26.3503 105.396 26.081 106.053 25.776 106.693Z" fill="#F55555"/>
<path id="Vector_38" d="M33.0337 45.3414C32.7931 45.6333 32.5678 45.9645 32.3015 46.2396L22.9238 46.2348L28.051 40.4934C31.3856 40.0747 34.7209 39.6574 38.0566 39.2415C36.382 41.2737 34.7078 43.307 33.0337 45.3414Z" fill="#61C0FF"/>
<path id="Vector_39" d="M129.657 47.8438C129.657 47.7636 123.828 40.7614 123.894 40.8416C127.229 41.2603 130.565 41.6776 133.9 42.0935L139.027 47.835C126.715 47.835 130.296 47.8903 129.657 47.8438Z" fill="#B26EE6"/>
</g>
</svg>
