<svg width="140" height="13" viewBox="0 0 140 13" fill="none" xmlns="http://www.w3.org/2000/svg">
<path d="M0.0408381 1.27273H1.63885L4.41726 8.05682H4.51953L7.29794 1.27273H8.89595V10H7.64311V3.68466H7.56215L4.98828 9.98722H3.94851L1.37464 3.6804H1.29368V10H0.0408381V1.27273ZM12.6129 10.1449C12.1982 10.1449 11.8232 10.0682 11.4879 9.91477C11.1527 9.75852 10.8871 9.53267 10.6911 9.23722C10.4979 8.94176 10.4013 8.57955 10.4013 8.15057C10.4013 7.78125 10.4723 7.47727 10.6143 7.23864C10.7564 7 10.9482 6.81108 11.1896 6.67188C11.4311 6.53267 11.701 6.42756 11.9993 6.35653C12.2976 6.28551 12.6016 6.23153 12.9112 6.1946C13.3033 6.14915 13.6214 6.11222 13.8658 6.08381C14.1101 6.05256 14.2876 6.00284 14.3984 5.93466C14.5092 5.86648 14.5646 5.75568 14.5646 5.60227V5.57244C14.5646 5.20028 14.4595 4.91193 14.2493 4.70739C14.0419 4.50284 13.7322 4.40057 13.3203 4.40057C12.8913 4.40057 12.5533 4.49574 12.3061 4.68608C12.0618 4.87358 11.8928 5.08239 11.799 5.3125L10.6016 5.03977C10.7436 4.64205 10.951 4.32102 11.2237 4.0767C11.4993 3.82955 11.8161 3.65057 12.174 3.53977C12.532 3.42614 12.9084 3.36932 13.3033 3.36932C13.5646 3.36932 13.8416 3.40057 14.1342 3.46307C14.4297 3.52273 14.7053 3.63352 14.9609 3.79545C15.2195 3.95739 15.4311 4.18892 15.5959 4.49006C15.7607 4.78835 15.843 5.17614 15.843 5.65341V10H14.5987V9.10511H14.5476C14.4652 9.26989 14.3416 9.43182 14.1768 9.59091C14.0121 9.75 13.8004 9.8821 13.5419 9.98722C13.2834 10.0923 12.9737 10.1449 12.6129 10.1449ZM12.8899 9.12216C13.2422 9.12216 13.5433 9.05256 13.7933 8.91335C14.0462 8.77415 14.2379 8.59233 14.3686 8.3679C14.5021 8.14062 14.5689 7.89773 14.5689 7.6392V6.79545C14.5234 6.84091 14.4354 6.88352 14.3047 6.9233C14.1768 6.96023 14.0305 6.9929 13.8658 7.02131C13.701 7.04687 13.5405 7.07102 13.3842 7.09375C13.228 7.11364 13.0973 7.13068 12.9922 7.14489C12.745 7.17614 12.5192 7.22869 12.3146 7.30256C12.1129 7.37642 11.951 7.48295 11.8288 7.62216C11.7095 7.75852 11.6499 7.94034 11.6499 8.16761C11.6499 8.48295 11.7663 8.72159 11.9993 8.88352C12.2322 9.04261 12.5291 9.12216 12.8899 9.12216ZM19.9904 10.1278C19.462 10.1278 18.9904 9.9929 18.5756 9.72301C18.1637 9.45028 17.8398 9.0625 17.604 8.55966C17.3711 8.05398 17.2546 7.44744 17.2546 6.74006C17.2546 6.03267 17.3725 5.42756 17.6083 4.92472C17.8469 4.42187 18.1737 4.03693 18.5884 3.76989C19.0032 3.50284 19.4734 3.36932 19.9989 3.36932C20.4052 3.36932 20.7319 3.4375 20.979 3.57386C21.229 3.70739 21.4222 3.86364 21.5586 4.04261C21.6978 4.22159 21.8058 4.37926 21.8825 4.51562H21.9592V1.27273H23.2333V10H21.989V8.98153H21.8825C21.8058 9.12074 21.695 9.27983 21.5501 9.45881C21.408 9.63778 21.212 9.79403 20.962 9.92756C20.712 10.0611 20.3881 10.1278 19.9904 10.1278ZM20.2717 9.04119C20.6381 9.04119 20.9478 8.9446 21.2006 8.75142C21.4563 8.5554 21.6495 8.28409 21.7802 7.9375C21.9137 7.59091 21.9805 7.1875 21.9805 6.72727C21.9805 6.27273 21.9151 5.875 21.7844 5.53409C21.6538 5.19318 21.462 4.92756 21.2092 4.73722C20.9563 4.54687 20.6438 4.4517 20.2717 4.4517C19.8881 4.4517 19.5685 4.55114 19.3129 4.75C19.0572 4.94886 18.864 5.22017 18.7333 5.56392C18.6055 5.90767 18.5415 6.29545 18.5415 6.72727C18.5415 7.16477 18.6069 7.55824 18.7376 7.90767C18.8683 8.2571 19.0614 8.53409 19.3171 8.73864C19.5756 8.94034 19.8938 9.04119 20.2717 9.04119ZM27.8729 10.1321C27.228 10.1321 26.6726 9.99432 26.2067 9.71875C25.7436 9.44034 25.3857 9.04972 25.1328 8.54688C24.8828 8.04119 24.7578 7.44886 24.7578 6.76989C24.7578 6.09943 24.8828 5.50852 25.1328 4.99716C25.3857 4.4858 25.7379 4.08665 26.1896 3.79972C26.6442 3.51278 27.1754 3.36932 27.7834 3.36932C28.1527 3.36932 28.5107 3.4304 28.8572 3.55256C29.2038 3.67472 29.5149 3.86648 29.7905 4.12784C30.0661 4.3892 30.2834 4.72869 30.4425 5.14631C30.6016 5.56108 30.6811 6.06534 30.6811 6.65909V7.1108H25.478V6.15625H29.4325C29.4325 5.82102 29.3643 5.52415 29.228 5.26562C29.0916 5.00426 28.8999 4.7983 28.6527 4.64773C28.4084 4.49716 28.1214 4.42188 27.7919 4.42188C27.4339 4.42188 27.1214 4.50994 26.8544 4.68608C26.5902 4.85937 26.3857 5.08665 26.2408 5.3679C26.0987 5.64631 26.0277 5.94886 26.0277 6.27557V7.02131C26.0277 7.45881 26.1044 7.83097 26.2578 8.13778C26.4141 8.4446 26.6314 8.67898 26.9098 8.84091C27.1882 9 27.5135 9.07955 27.8857 9.07955C28.1271 9.07955 28.3473 9.04545 28.5462 8.97727C28.745 8.90625 28.9169 8.80114 29.0618 8.66193C29.2067 8.52273 29.3175 8.35085 29.3942 8.14631L30.6001 8.36364C30.5036 8.71875 30.3303 9.02983 30.0803 9.29688C29.8331 9.56108 29.522 9.76705 29.147 9.91477C28.7749 10.0597 28.3501 10.1321 27.8729 10.1321ZM36.6896 10L34.7635 3.45455H36.0803L37.3629 8.26136H37.4268L38.7138 3.45455H40.0305L41.3089 8.24006H41.3729L42.647 3.45455H43.9638L42.0419 10H40.7422L39.4126 5.27415H39.3146L37.9851 10H36.6896ZM45.1729 10V3.45455H46.4471V10H45.1729ZM45.8164 2.4446C45.5948 2.4446 45.4045 2.37074 45.2454 2.22301C45.0891 2.07244 45.011 1.89347 45.011 1.68608C45.011 1.47585 45.0891 1.29687 45.2454 1.14915C45.4045 0.998579 45.5948 0.923295 45.8164 0.923295C46.038 0.923295 46.2269 0.998579 46.3832 1.14915C46.5423 1.29687 46.6218 1.47585 46.6218 1.68608C46.6218 1.89347 46.5423 2.07244 46.3832 2.22301C46.2269 2.37074 46.038 2.4446 45.8164 2.4446ZM51.2166 3.45455V4.47727H47.6413V3.45455H51.2166ZM48.6001 1.88636H49.8743V8.07812C49.8743 8.32528 49.9112 8.51136 49.9851 8.63636C50.0589 8.75852 50.1541 8.84233 50.2706 8.88778C50.3899 8.9304 50.5192 8.9517 50.6584 8.9517C50.7607 8.9517 50.8501 8.9446 50.9268 8.9304C51.0036 8.91619 51.0632 8.90483 51.1058 8.89631L51.3359 9.94886C51.2621 9.97727 51.157 10.0057 51.0206 10.0341C50.8842 10.0653 50.7138 10.0824 50.5092 10.0852C50.174 10.0909 49.8615 10.0312 49.5717 9.90625C49.282 9.78125 49.0476 9.58807 48.8686 9.3267C48.6896 9.06534 48.6001 8.73722 48.6001 8.34233V1.88636ZM54.0408 6.11364V10H52.7667V1.27273H54.0238V4.51989H54.1048C54.2582 4.16761 54.4925 3.88778 54.8079 3.6804C55.1232 3.47301 55.5352 3.36932 56.0437 3.36932C56.4925 3.36932 56.8846 3.46165 57.2198 3.64631C57.5579 3.83097 57.8192 4.10653 58.0039 4.47301C58.1914 4.83665 58.2852 5.29119 58.2852 5.83665V10H57.011V5.99006C57.011 5.50994 56.8874 5.13778 56.6403 4.87358C56.3931 4.60653 56.0494 4.47301 55.609 4.47301C55.3079 4.47301 55.038 4.53693 54.7994 4.66477C54.5636 4.79261 54.3775 4.98011 54.2411 5.22727C54.1076 5.47159 54.0408 5.76705 54.0408 6.11364ZM78.7088 10V1.27273H79.983V4.51562H80.0597C80.1335 4.37926 80.2401 4.22159 80.3793 4.04261C80.5185 3.86364 80.7116 3.70739 80.9588 3.57386C81.206 3.4375 81.5327 3.36932 81.9389 3.36932C82.4673 3.36932 82.9389 3.50284 83.3537 3.76989C83.7685 4.03693 84.0938 4.42187 84.3295 4.92472C84.5682 5.42756 84.6875 6.03267 84.6875 6.74006C84.6875 7.44744 84.5696 8.05398 84.3338 8.55966C84.098 9.0625 83.7741 9.45028 83.3622 9.72301C82.9503 9.9929 82.4801 10.1278 81.9517 10.1278C81.554 10.1278 81.2287 10.0611 80.9759 9.92756C80.7259 9.79403 80.5298 9.63778 80.3878 9.45881C80.2457 9.27983 80.1364 9.12074 80.0597 8.98153H79.9531V10H78.7088ZM79.9574 6.72727C79.9574 7.1875 80.0241 7.59091 80.1577 7.9375C80.2912 8.28409 80.4844 8.5554 80.7372 8.75142C80.9901 8.9446 81.2997 9.04119 81.6662 9.04119C82.0469 9.04119 82.3651 8.94034 82.6207 8.73864C82.8764 8.53409 83.0696 8.2571 83.2003 7.90767C83.3338 7.55824 83.4006 7.16477 83.4006 6.72727C83.4006 6.29545 83.3352 5.90767 83.2045 5.56392C83.0767 5.22017 82.8835 4.94886 82.625 4.75C82.3693 4.55114 82.0497 4.4517 81.6662 4.4517C81.2969 4.4517 80.9844 4.54687 80.7287 4.73722C80.4759 4.92756 80.2841 5.19318 80.1534 5.53409C80.0227 5.875 79.9574 6.27273 79.9574 6.72727ZM86.701 12.4545C86.5107 12.4545 86.3374 12.4389 86.1811 12.4077C86.0249 12.3793 85.9084 12.348 85.8317 12.3139L86.1385 11.2699C86.3714 11.3324 86.5788 11.3594 86.7607 11.3509C86.9425 11.3423 87.103 11.2741 87.2422 11.1463C87.3842 11.0185 87.5092 10.8097 87.6172 10.5199L87.7749 10.0852L85.38 3.45455H86.7436L88.4013 8.53409H88.4695L90.1271 3.45455H91.495L88.7976 10.8736C88.6726 11.2145 88.5135 11.5028 88.3203 11.7386C88.1271 11.9773 87.897 12.1563 87.63 12.2756C87.3629 12.3949 87.0533 12.4545 86.701 12.4545ZM99.1623 1.27273V10H97.8413V2.59375H97.7901L95.7021 3.95739V2.69602L97.8796 1.27273H99.1623ZM104.834 1.27273V10H103.513V2.59375H103.462L101.374 3.95739V2.69602L103.551 1.27273H104.834ZM110.233 10.1449C109.56 10.142 108.985 9.96449 108.507 9.61222C108.03 9.25994 107.665 8.74716 107.412 8.07386C107.159 7.40057 107.033 6.58949 107.033 5.64062C107.033 4.6946 107.159 3.88636 107.412 3.21591C107.668 2.54545 108.034 2.03409 108.512 1.68182C108.992 1.32955 109.566 1.15341 110.233 1.15341C110.901 1.15341 111.473 1.33097 111.951 1.68608C112.428 2.03835 112.793 2.54972 113.046 3.22017C113.301 3.88778 113.429 4.6946 113.429 5.64062C113.429 6.59233 113.303 7.40483 113.05 8.07812C112.797 8.74858 112.432 9.26136 111.955 9.61648C111.478 9.96875 110.904 10.1449 110.233 10.1449ZM110.233 9.0071C110.824 9.0071 111.286 8.71875 111.618 8.14205C111.953 7.56534 112.121 6.73153 112.121 5.64062C112.121 4.91619 112.044 4.30398 111.891 3.80398C111.74 3.30114 111.523 2.92045 111.239 2.66193C110.958 2.40057 110.623 2.26989 110.233 2.26989C109.645 2.26989 109.184 2.55966 108.848 3.1392C108.513 3.71875 108.344 4.55256 108.341 5.64062C108.341 6.3679 108.417 6.98295 108.567 7.4858C108.721 7.9858 108.938 8.36506 109.219 8.62358C109.5 8.87926 109.838 9.0071 110.233 9.0071ZM117.979 10.1193C117.394 10.1193 116.871 10.0185 116.411 9.81676C115.954 9.61506 115.592 9.33523 115.325 8.97727C115.06 8.61648 114.918 8.19886 114.898 7.72443H116.237C116.254 7.98295 116.34 8.20739 116.496 8.39773C116.656 8.58523 116.863 8.73011 117.119 8.83239C117.374 8.93466 117.658 8.9858 117.971 8.9858C118.315 8.9858 118.619 8.92614 118.883 8.80682C119.15 8.6875 119.359 8.52131 119.509 8.30824C119.66 8.09233 119.735 7.84375 119.735 7.5625C119.735 7.26989 119.66 7.01278 119.509 6.79119C119.362 6.56676 119.144 6.39062 118.857 6.26278C118.573 6.13494 118.229 6.07102 117.826 6.07102H117.089V4.99716H117.826C118.15 4.99716 118.434 4.93892 118.678 4.82244C118.925 4.70597 119.119 4.54403 119.258 4.33665C119.397 4.12642 119.467 3.88068 119.467 3.59943C119.467 3.32955 119.406 3.09517 119.283 2.89631C119.164 2.6946 118.994 2.53693 118.772 2.4233C118.553 2.30966 118.295 2.25284 117.996 2.25284C117.712 2.25284 117.447 2.3054 117.2 2.41051C116.955 2.51278 116.756 2.66051 116.603 2.85369C116.45 3.04403 116.367 3.27273 116.356 3.53977H115.082C115.096 3.06818 115.235 2.65341 115.499 2.29545C115.766 1.9375 116.119 1.65767 116.556 1.45597C116.994 1.25426 117.479 1.15341 118.013 1.15341C118.573 1.15341 119.056 1.26278 119.462 1.48153C119.871 1.69744 120.187 1.9858 120.408 2.34659C120.633 2.70739 120.744 3.10227 120.741 3.53125C120.744 4.01989 120.607 4.43466 120.332 4.77557C120.059 5.11648 119.695 5.34517 119.241 5.46165V5.52983C119.82 5.6179 120.269 5.84801 120.587 6.22017C120.908 6.59233 121.067 7.05398 121.065 7.60511C121.067 8.08523 120.934 8.51562 120.664 8.89631C120.397 9.27699 120.032 9.5767 119.569 9.79545C119.106 10.0114 118.576 10.1193 117.979 10.1193ZM125.513 10.1321C124.869 10.1321 124.313 9.99432 123.847 9.71875C123.384 9.44034 123.026 9.04972 122.773 8.54688C122.523 8.04119 122.398 7.44886 122.398 6.76989C122.398 6.09943 122.523 5.50852 122.773 4.99716C123.026 4.4858 123.379 4.08665 123.83 3.79972C124.285 3.51278 124.816 3.36932 125.424 3.36932C125.793 3.36932 126.151 3.4304 126.498 3.55256C126.844 3.67472 127.156 3.86648 127.431 4.12784C127.707 4.3892 127.924 4.72869 128.083 5.14631C128.242 5.56108 128.322 6.06534 128.322 6.65909V7.1108H123.119V6.15625H127.073C127.073 5.82102 127.005 5.52415 126.869 5.26562C126.732 5.00426 126.54 4.7983 126.293 4.64773C126.049 4.49716 125.762 4.42188 125.433 4.42188C125.075 4.42188 124.762 4.50994 124.495 4.68608C124.231 4.85937 124.026 5.08665 123.881 5.3679C123.739 5.64631 123.668 5.94886 123.668 6.27557V7.02131C123.668 7.45881 123.745 7.83097 123.898 8.13778C124.055 8.4446 124.272 8.67898 124.55 8.84091C124.829 9 125.154 9.07955 125.526 9.07955C125.768 9.07955 125.988 9.04545 126.187 8.97727C126.386 8.90625 126.558 8.80114 126.702 8.66193C126.847 8.52273 126.958 8.35085 127.035 8.14631L128.241 8.36364C128.144 8.71875 127.971 9.02983 127.721 9.29688C127.474 9.56108 127.163 9.76705 126.788 9.91477C126.415 10.0597 125.991 10.1321 125.513 10.1321ZM129.735 10V3.45455H130.967V4.49432H131.035C131.154 4.14205 131.365 3.86506 131.666 3.66335C131.97 3.45881 132.314 3.35653 132.697 3.35653C132.777 3.35653 132.87 3.35937 132.978 3.36506C133.089 3.37074 133.176 3.37784 133.238 3.38636V4.60511C133.187 4.59091 133.096 4.57528 132.966 4.55824C132.835 4.53835 132.704 4.52841 132.574 4.52841C132.272 4.52841 132.004 4.59233 131.768 4.72017C131.535 4.84517 131.35 5.01989 131.214 5.24432C131.078 5.46591 131.01 5.71875 131.01 6.00284V10H129.735ZM139.246 5.05256L138.091 5.2571C138.043 5.10937 137.966 4.96875 137.861 4.83523C137.759 4.7017 137.619 4.59233 137.443 4.5071C137.267 4.42187 137.047 4.37926 136.783 4.37926C136.422 4.37926 136.121 4.46023 135.879 4.62216C135.638 4.78125 135.517 4.98722 135.517 5.24006C135.517 5.45881 135.598 5.63494 135.76 5.76847C135.922 5.90199 136.183 6.01136 136.544 6.09659L137.584 6.33523C138.186 6.47443 138.635 6.68892 138.93 6.97869C139.226 7.26847 139.374 7.64489 139.374 8.10795C139.374 8.5 139.26 8.84943 139.033 9.15625C138.808 9.46023 138.494 9.69886 138.091 9.87216C137.69 10.0455 137.226 10.1321 136.697 10.1321C135.964 10.1321 135.366 9.97585 134.903 9.66335C134.44 9.34801 134.156 8.90057 134.051 8.32102L135.283 8.13352C135.359 8.45455 135.517 8.69744 135.756 8.86222C135.994 9.02415 136.305 9.10511 136.689 9.10511C137.107 9.10511 137.44 9.01847 137.69 8.84517C137.94 8.66903 138.065 8.45455 138.065 8.2017C138.065 7.99716 137.989 7.82528 137.835 7.68608C137.685 7.54687 137.453 7.44176 137.141 7.37074L136.033 7.12784C135.422 6.98864 134.97 6.76705 134.678 6.46307C134.388 6.15909 134.243 5.77415 134.243 5.30824C134.243 4.92187 134.351 4.58381 134.567 4.29403C134.783 4.00426 135.081 3.77841 135.462 3.61648C135.842 3.4517 136.278 3.36932 136.77 3.36932C137.477 3.36932 138.034 3.52273 138.44 3.82955C138.847 4.13352 139.115 4.54119 139.246 5.05256Z" fill="#231F20"/>
<path d="M68.4411 10.1364L64.0604 5.75568C63.7109 5.40625 63.478 5 63.3615 4.53693C63.2479 4.07386 63.2493 3.61364 63.3658 3.15625C63.4822 2.69602 63.7138 2.29545 64.0604 1.95455C64.4155 1.60511 64.8203 1.37358 65.2749 1.25994C65.7322 1.14347 66.1882 1.14347 66.6428 1.25994C67.1001 1.37642 67.5064 1.60795 67.8615 1.95455L68.4411 2.51705L69.0206 1.95455C69.3786 1.60795 69.7848 1.37642 70.2393 1.25994C70.6939 1.14347 71.1484 1.14347 71.603 1.25994C72.0604 1.37358 72.4666 1.60511 72.8217 1.95455C73.1683 2.29545 73.3999 2.69602 73.5163 3.15625C73.6328 3.61364 73.6328 4.07386 73.5163 4.53693C73.4027 5 73.1712 5.40625 72.8217 5.75568L68.4411 10.1364Z" fill="#AF0159"/>
</svg>
