<svg width="16" height="16" viewBox="0 0 16 16" fill="none" xmlns="http://www.w3.org/2000/svg">
<path d="M13.3332 5.49992V11.9999C13.3332 13.9999 12.1398 14.6666 10.6665 14.6666H5.33317C3.85984 14.6666 2.6665 13.9999 2.6665 11.9999V5.49992C2.6665 3.33325 3.85984 2.83325 5.33317 2.83325C5.33317 3.24659 5.49982 3.61992 5.77315 3.89325C6.04649 4.16658 6.41984 4.33325 6.83317 4.33325H9.1665C9.99317 4.33325 10.6665 3.65992 10.6665 2.83325C12.1398 2.83325 13.3332 3.33325 13.3332 5.49992Z" stroke="white" stroke-width="1.1" stroke-linecap="round" stroke-linejoin="round"/>
<path d="M10.6668 2.83325C10.6668 3.65992 9.9935 4.33325 9.16683 4.33325H6.8335C6.42016 4.33325 6.04681 4.16658 5.77348 3.89325C5.50014 3.61992 5.3335 3.24659 5.3335 2.83325C5.3335 2.00659 6.00683 1.33325 6.8335 1.33325H9.16683C9.58016 1.33325 9.95351 1.49992 10.2268 1.77325C10.5002 2.04659 10.6668 2.41992 10.6668 2.83325Z" stroke="white" stroke-width="1.375" stroke-linecap="round" stroke-linejoin="round"/>
<path opacity="0.4" d="M5.3335 8.66675H8.00016" stroke="white" stroke-width="1.375" stroke-linecap="round" stroke-linejoin="round"/>
<path opacity="0.4" d="M5.3335 11.3333H10.6668" stroke="white" stroke-width="1.375" stroke-linecap="round" stroke-linejoin="round"/>
</svg>
