<svg width="240" height="240" viewBox="0 0 240 240" fill="none" xmlns="http://www.w3.org/2000/svg">
<rect width="239.301" height="239.301" transform="translate(0.388184 0.388184)" fill="white"/>
<path d="M134.195 67.6083C133.174 62.7421 136.856 57.5672 135.475 52.6891C135.205 51.5512 134.556 50.5388 133.636 49.8174C130.981 47.9365 122.703 50.789 120.515 58.3067C116.73 71.5209 137.413 80.0101 133.35 93.125C132.095 96.7145 128.712 98.8048 127.054 102.577C126.266 104.695 125.989 106.968 126.246 109.212C126.503 111.457 127.287 113.609 128.534 115.493C130.321 114.74 132.035 113.826 133.656 112.762C131.153 108.859 132.354 103.794 135.571 100.383C138.844 96.6738 142.918 93.6682 143.336 87.0922C144.008 77.2043 135.55 74.079 134.195 67.6083ZM128.985 69.9738C129.477 72.0108 130.582 73.8481 132.15 75.2384C132.502 75.5519 131.982 76.0688 131.632 75.7565C129.972 74.2775 128.803 72.3267 128.282 70.1652C128.175 69.7094 128.875 69.5155 128.985 69.9738ZM133.068 55.5906C132.105 57.28 131.63 59.2029 131.695 61.146C131.713 61.6186 130.977 61.6162 130.962 61.146C130.882 59.0713 131.393 57.0166 132.435 55.2209C132.487 55.1437 132.566 55.0893 132.657 55.0687C132.748 55.048 132.844 55.0627 132.924 55.1097C133.004 55.1567 133.064 55.2325 133.091 55.3218C133.117 55.4111 133.109 55.5072 133.068 55.5906ZM137.221 80.7388C136.285 79.2318 135.235 77.799 134.08 76.4529C133.774 76.0939 134.289 75.577 134.597 75.9348C135.795 77.3265 136.883 78.8091 137.852 80.3691C138.106 80.7711 137.468 81.1384 137.221 80.7388ZM134.416 97.1644C133.406 98.5776 132.572 100.109 131.933 101.724C131.763 102.16 131.055 101.964 131.227 101.53C131.881 99.853 132.74 98.2627 133.784 96.7959C134.056 96.4142 134.69 96.7815 134.416 97.1644ZM129.89 108.726L130.72 113.04C130.807 113.502 130.101 113.697 130.013 113.235L129.184 108.921C129.095 108.461 129.801 108.264 129.89 108.726ZM135.841 87.8532C136 86.1137 135.5 84.378 134.44 82.9894C134.154 82.6209 134.671 82.0992 134.958 82.4713C136.156 83.9985 136.732 85.9214 136.573 87.8556C136.533 88.3198 135.799 88.3234 135.841 87.8532ZM138.784 91.4714C138.573 91.8926 137.947 91.5217 138.153 91.1005C138.884 89.6462 139.273 88.0439 139.289 86.4162C139.295 86.3226 139.336 86.2345 139.404 86.1701C139.472 86.1057 139.562 86.0698 139.656 86.0698C139.75 86.0698 139.84 86.1057 139.908 86.1701C139.977 86.2345 140.018 86.3226 140.023 86.4162C139.998 88.1733 139.575 89.9018 138.784 91.4714ZM126.41 59.2435C126.605 58.814 127.235 59.1861 127.043 59.6132C126.222 61.4472 125.838 63.4468 125.921 65.4546C125.94 65.9272 125.203 65.9248 125.19 65.4546C125.11 63.3177 125.528 61.1915 126.41 59.2435Z" fill="#FF83C2"/>
<path d="M187.707 125.304C179.562 118.425 166.142 115.664 155.131 117.184C159.046 119.326 161.049 124.514 160.994 128.819C160.742 133.045 155.984 135.135 152.445 136.088C148.414 137.183 144.182 137.317 140.09 136.48C135.997 135.643 132.158 133.857 128.881 131.267C122.471 131.852 118.385 130.789 114.376 128.622C97.5136 133.486 90.6468 138.233 85.4205 142.003C80.0828 145.857 77.4099 152.1 76.6704 158.667C79.7815 157.004 83.2438 156.106 86.771 156.047C90.2981 155.988 93.7886 156.77 96.9536 158.327C99.9449 152.902 108.977 148.344 129.402 150.987C132.213 159.111 141.592 166.946 140.27 175.169C140.03 176.62 139.174 179.94 138.626 181.989L139.702 182.733C142.638 181.506 145.683 180.558 148.796 179.903C151.365 179.271 158.699 177.005 160.943 176.688C160.872 176.669 160.808 176.631 160.758 176.578C160.708 176.524 160.674 176.458 160.661 176.386C160.648 176.314 160.655 176.239 160.682 176.172C160.709 176.104 160.755 176.045 160.815 176.002C165.05 173.078 168.885 170.83 172.251 167.46C171.935 167.365 171.619 167.27 171.313 167.144C170.881 166.969 171.074 166.26 171.508 166.439C171.936 166.61 172.376 166.752 172.824 166.863C173.049 166.619 173.268 166.371 173.481 166.118C173.394 165.908 173.51 165.63 173.873 165.63C174.911 164.44 175.685 163.044 176.147 161.534C176.608 160.024 176.746 158.434 176.551 156.868C176.432 156.108 176.158 155.391 176.019 154.642C174.989 148.547 169.929 144.424 165.503 140.134C165.164 139.805 165.682 139.289 166.022 139.616C170.249 143.713 174.996 147.633 176.494 153.302C176.599 153.723 176.648 154.155 176.745 154.578C177.104 155.655 177.32 156.774 177.386 157.907C177.459 160.689 176.561 163.408 174.847 165.6C176.407 165.516 177.933 165.116 179.333 164.424C179.754 164.214 180.125 164.846 179.703 165.057C178.014 165.895 176.155 166.337 174.269 166.349C174.079 166.588 173.877 166.812 173.671 167.038C174.563 167.187 175.47 167.215 176.369 167.121C176.837 167.07 176.834 167.804 176.369 167.854C175.272 167.966 174.163 167.903 173.085 167.669C171.708 169.066 170.219 170.349 168.634 171.505C166.818 172.861 161.231 176.623 161.111 176.663C164.189 176.62 167.215 177.45 169.84 179.056C172.132 180.393 174.055 182.281 175.432 184.549C176.81 186.817 177.599 189.393 177.729 192.044C182.066 191.47 186.213 189.907 189.849 187.474C193.486 185.042 196.513 181.805 198.699 178.015C207.3 163.344 203.755 138.854 187.707 125.304ZM114.961 149.952C114.955 150.01 114.937 150.066 114.906 150.116C114.876 150.166 114.835 150.209 114.786 150.24C114.737 150.272 114.682 150.293 114.624 150.301C114.566 150.308 114.507 150.303 114.451 150.284C114.386 150.325 114.308 150.342 114.232 150.332C114.155 150.321 114.085 150.284 114.033 150.227C113.123 149.318 112.523 148.146 112.318 146.877C112.244 146.416 112.95 146.219 113.024 146.683C113.18 147.664 113.601 148.583 114.241 149.343C114.269 148.029 113.982 146.727 113.403 145.547C113.194 145.126 113.826 144.757 114.036 145.178C114.784 146.652 115.104 148.305 114.961 149.952ZM146.165 148.277L143.838 143.411C143.598 142.912 144.341 142.476 144.581 142.976C145.357 144.597 146.134 146.219 146.909 147.842C147.148 148.335 146.404 148.772 146.165 148.277ZM173.73 126.318L168.78 128.764C168.283 129.003 167.848 128.266 168.344 128.02L173.294 125.574C173.79 125.324 174.226 126.068 173.73 126.314V126.318ZM187.37 140.413C186.856 142.439 186.293 144.451 185.757 146.472C185.725 146.58 185.652 146.671 185.553 146.725C185.455 146.78 185.339 146.794 185.23 146.764C185.122 146.734 185.029 146.663 184.973 146.566C184.916 146.468 184.899 146.353 184.927 146.244L186.538 140.184C186.568 140.073 186.641 139.978 186.74 139.921C186.84 139.863 186.958 139.848 187.069 139.878C187.18 139.908 187.275 139.98 187.332 140.08C187.389 140.179 187.405 140.298 187.375 140.408L187.37 140.413Z" fill="#E34193"/>
<path d="M106.836 113C106.754 111.746 106.359 110.532 105.688 109.469C104.994 108.587 104.091 107.892 103.061 107.448C102.03 107.004 100.905 106.825 99.7878 106.928C96.8504 107.082 94.0673 108.386 91.2782 109.209C86.0339 110.756 80.1615 111.565 75.1745 108.776C73.0223 107.622 71.3325 105.764 70.3884 103.512C69.5873 101.171 69.2405 98.6983 69.3666 96.2273C69.3666 91.6075 69.7806 86.4781 66.5895 82.7067C63.3685 78.8947 56.4096 76.942 48.5354 80.0242C45.9905 80.9562 43.3905 82.0319 40.6253 81.8381C39.3902 81.7907 38.1971 81.3766 37.1983 80.6484C36.1995 79.9202 35.4402 78.9111 35.0173 77.7496C34.2954 75.2998 33.9327 72.7583 33.9404 70.2044L33.6305 65.7439C33.5923 65.1935 32.7308 65.1899 32.7691 65.7439C33.2752 73.0138 33.0897 78.0081 35.9494 80.7828C40.5834 84.7839 45.8253 81.6837 50.7466 80.1761C57.5068 78.1062 65.5186 79.8435 67.7286 86.4674C68.412 88.9149 68.6821 91.4593 68.5279 93.9958C68.4848 98.8189 68.3986 104.018 72.1545 107.618C78.2064 113.417 87.4602 111.678 95.3428 108.815C97.9918 107.937 101.064 107.095 103.615 108.695C104.126 108.991 104.567 109.391 104.911 109.871C105.255 110.35 105.493 110.897 105.609 111.476C105.683 112.099 105.849 112.708 106.101 113.283C106.34 113.175 106.586 113.081 106.836 113ZM140.531 107.476C139.974 104.718 142.715 102.413 145.34 102.008C148.341 101.418 151.342 101.813 154.232 99.1742C158.716 95.0978 159.787 86.7306 158.432 80.6906C156.974 74.19 152.196 68.9912 150.915 62.4511C150.379 59.4785 150.742 56.4136 151.959 53.6489C153.175 50.8842 155.189 48.5455 157.743 46.9324C159.093 46.102 160.757 45.5755 161.638 44.1613C162.346 42.6543 162.509 40.9484 162.099 39.3346C161.511 35.0435 160.565 30.8091 159.271 26.6755C159.106 26.1479 158.274 26.3728 158.441 26.904C159.588 30.5694 160.462 34.3147 161.056 38.1093C161.304 39.6935 161.742 41.566 161.183 43.1347C160.605 44.7523 158.816 45.2884 157.474 46.096C155.018 47.6029 153.012 49.7412 151.665 52.2879C150.318 54.8345 149.68 57.696 149.816 60.5737C150.426 70.5131 159.986 76.2946 157.873 89.5005C157.005 94.8716 154.472 99.8838 149.099 100.62C147.209 100.757 145.339 101.091 143.518 101.615C141.192 102.533 138.732 105.519 139.855 108.106C140.1 107.918 140.327 107.707 140.531 107.476Z" fill="#B26EE6"/>
<path d="M144.371 120.3C144.371 120.203 144.409 120.11 144.478 120.041C144.547 119.972 144.64 119.934 144.737 119.934C144.834 119.934 144.927 119.972 144.996 120.041C145.064 120.11 145.103 120.203 145.103 120.3C145.136 127.394 136.952 130.512 129.949 131.171C139.371 138.285 152.594 137.28 158.452 132.309C159.211 131.668 159.773 130.826 160.074 129.88C160.376 128.934 160.405 127.923 160.159 126.961C158.364 115.508 150.673 117.237 144.926 114.278C144.872 114.245 144.827 114.199 144.796 114.143C144.765 114.088 144.748 114.026 144.748 113.962C144.748 113.899 144.765 113.836 144.796 113.781C144.827 113.726 144.872 113.679 144.926 113.646C145.402 113.383 145.78 112.972 146.003 112.476C146.526 110.245 145.405 106.817 143.081 106.943C141.835 107.01 141.012 108.054 140.134 108.821C137.058 111.583 133.607 113.899 129.885 115.698C127.626 116.766 125.207 117.456 122.725 117.739C117.741 118.369 109.573 118.457 106.653 114.4C106.228 119.795 110.109 126.076 116.301 128.768C119.547 130.286 123.094 131.031 128.996 130.528C135.88 130.078 144.402 127.17 144.371 120.3ZM116.971 121.066C117.04 120.6 117.746 120.799 117.677 121.26C117.432 122.176 117.485 123.147 117.827 124.032C117.979 124.363 118.25 124.624 118.586 124.763C118.922 124.902 119.298 124.91 119.639 124.783C120.057 124.56 120.425 125.192 120.01 125.415C119.555 125.626 119.04 125.668 118.558 125.533C118.075 125.398 117.657 125.095 117.378 124.679C117.075 124.133 116.883 123.533 116.814 122.913C116.744 122.293 116.797 121.665 116.971 121.066ZM129.353 120.208L130.22 122.503C130.387 122.945 129.679 123.136 129.514 122.698L128.646 120.403C128.48 119.96 129.187 119.771 129.353 120.208ZM141.342 112.622C143.25 110.349 143.191 109.443 143.75 109.795C143.828 109.845 143.885 109.922 143.908 110.012C143.932 110.102 143.92 110.197 143.877 110.279C143.287 111.289 142.613 112.246 141.86 113.14C141.557 113.501 141.042 112.98 141.342 112.621V112.622ZM112.325 122.212C112.03 121.64 111.736 121.069 111.44 120.5C111.224 120.081 111.857 119.711 112.073 120.13L112.956 121.841C113.173 122.26 112.541 122.631 112.325 122.212ZM126.612 127.572C126.519 127.546 126.439 127.484 126.391 127.4C126.343 127.316 126.331 127.215 126.357 127.122C126.383 127.028 126.445 126.949 126.529 126.901C126.614 126.853 126.714 126.841 126.807 126.866C128.157 127.237 129.59 127.167 130.897 126.667C132.204 126.168 133.318 125.264 134.077 124.088C134.326 123.687 134.96 124.056 134.71 124.458C133.877 125.781 132.638 126.8 131.179 127.362C129.72 127.924 128.118 128 126.612 127.577V127.572Z" fill="#FFCEB6"/>
<path d="M107.636 75.2452C107.851 72.3424 107.681 69.424 107.131 66.5657C106.102 61.2521 101.412 56.606 95.9436 58.0454C93.5626 58.7406 91.6434 60.4001 89.37 61.3286C88.2721 61.8651 87.0232 62.0084 85.8323 61.7344C84.6414 61.4604 83.5806 60.7858 82.8275 59.8234C79.0801 55.4681 81.5233 48.9352 79.0956 42.8426C77.2315 37.688 71.3925 34.2768 66.5802 37.4272C61.6422 40.7475 61.6853 47.4862 62.4139 52.7425C63.0214 58.1506 65.2247 63.2554 68.7435 67.4069C73.825 73.1094 82.587 75.4749 89.2516 71.6521C90.4199 70.8162 91.6481 70.0672 92.926 69.411C96.5622 67.9274 100.225 71.1244 101.343 75.2823C102.076 77.9972 102.266 81.0255 104.392 83.0991C105.216 83.9295 106.31 84.4365 107.476 84.5277C108.457 84.6222 107.066 82.6061 107.636 75.2452ZM101.852 67.7575C100.65 67.0071 99.2121 66.7323 97.8186 66.9869C97.3567 67.0731 97.1617 66.3671 97.6247 66.281C99.2086 65.9778 100.849 66.2788 102.222 67.1245C102.624 67.3722 102.255 68.0075 101.852 67.7575ZM93.5602 63.1928C95.3215 62.841 97.0943 62.5539 98.8787 62.3313C99.3453 62.2727 99.3393 63.0061 98.8787 63.0636C97.1605 63.2813 95.4527 63.5605 93.7552 63.9011C93.2946 63.9909 93.0995 63.2849 93.5614 63.1928H93.5602ZM89.5004 65.8431C87.5945 66.5687 85.5061 66.6643 83.5418 66.1159C83.4534 66.0856 83.3799 66.0227 83.3362 65.9401C83.2925 65.8575 83.2819 65.7614 83.3066 65.6712C83.3313 65.5811 83.3895 65.5038 83.4692 65.455C83.5489 65.4063 83.6442 65.3897 83.7357 65.4087C85.5728 65.9188 87.5254 65.8236 89.3042 65.1371C89.7481 64.9684 89.936 65.6779 89.5016 65.8431H89.5004ZM71.4727 48.6193C71.1781 47.0714 71.1008 45.4899 71.243 43.9207C71.2848 43.454 72.0183 43.4504 71.9752 43.9207C71.8322 45.424 71.9006 46.94 72.1786 48.4243C72.266 48.8862 71.5612 49.086 71.4727 48.6193ZM77.655 55.5004C77.9111 55.8977 77.2769 56.2638 77.0221 55.869C75.5656 53.6038 74.9429 50.9023 75.2608 48.2281C75.3183 47.765 76.0493 47.7614 75.9931 48.2281C75.6806 50.7719 76.2686 53.3449 77.655 55.5004ZM79.9176 68.93C77.7529 68.749 75.7101 67.8519 74.1122 66.3803C73.764 66.0596 74.2833 65.5427 74.6303 65.861C76.0856 67.2034 77.9452 68.0248 79.9176 68.1966C80.3843 68.2361 80.3867 68.9695 79.9176 68.93ZM73.8274 59.3759C74.1468 60.1383 74.6402 60.8154 75.268 61.3531C75.8959 61.8908 76.6408 62.2741 77.4433 62.4725C77.5323 62.5024 77.6065 62.5653 77.6505 62.6482C77.6946 62.7311 77.7053 62.8278 77.6803 62.9183C77.6553 63.0089 77.5966 63.0864 77.5163 63.135C77.4359 63.1836 77.34 63.1996 77.2482 63.1796C76.3269 62.9422 75.4741 62.4919 74.7584 61.8649C74.0427 61.238 73.4841 60.4519 73.1275 59.5698C72.942 59.1366 73.6491 58.9464 73.8274 59.3759ZM68.1811 54.0371C67.588 51.9635 67.3509 49.8043 67.4799 47.6514C67.5039 47.1811 68.2361 47.1799 68.2122 47.6514C67.9538 52.5977 69.4697 54.0778 68.6166 54.2836C68.5261 54.3072 68.4299 54.2946 68.3485 54.2483C68.2671 54.202 68.2071 54.1258 68.1811 54.0359V54.0371Z" fill="#B26EE6"/>
<path d="M115.645 29.0569C113.889 28.138 113.319 28.7841 110.639 28.6681C108.725 28.3582 107.583 25.7965 109.921 22.3003C113.781 16.0054 117.2 17.2187 114.884 11.2015C113.92 8.30233 111.559 5.73104 108.433 6.50877C107.718 6.68858 107.06 7.04603 106.52 7.54797C105.979 8.0499 105.575 8.68008 105.343 9.38007C105.112 10.0801 105.06 10.8272 105.195 11.5522C105.329 12.2772 105.644 12.9566 106.11 13.5275C107.576 15.1595 108.635 14.9812 109.221 16.6121C109.621 18.3913 107.69 19.6799 106.502 20.594C102.045 23.4992 103.856 30.0728 109.635 31.0336C111.764 31.42 114.444 30.7476 115.703 32.3605C117.1 34.5142 113.908 37.0352 114.442 40.0098C114.492 40.3819 114.935 40.2586 114.815 40.2802C114.896 40.2969 114.98 40.2812 115.049 40.2364C115.118 40.1916 115.167 40.1213 115.185 40.0409C115.965 36.3114 117.438 35.3745 117.84 32.3019C117.778 31.6196 117.544 30.9642 117.16 30.3967C116.777 29.8293 116.255 29.3683 115.645 29.0569Z" fill="#6DD3A8"/>
<path d="M84.5804 81.0806C82.4051 80.547 80.4943 82.8574 80.6666 85.0889C80.8389 87.3204 84.1771 87.8026 85.8905 86.3608C86.2654 85.9683 86.535 85.4875 86.6743 84.963C86.8136 84.4384 86.8181 83.8872 86.6874 83.3604C86.5567 82.8337 86.295 82.3485 85.9267 81.9499C85.5583 81.5514 85.0952 81.2524 84.5804 81.0806Z" fill="#E34193"/>
<path d="M98.8412 42.8801C98.3665 42.7364 97.8624 42.7201 97.3794 42.8326C96.8964 42.9452 96.4515 43.1827 96.0892 43.5214C95.8404 43.9134 95.714 44.3706 95.7261 44.8348C95.7383 45.2989 95.8884 45.7489 96.1574 46.1274C96.4598 46.3484 96.8118 46.4917 97.1825 46.5448C97.5533 46.5979 97.9313 46.5591 98.2836 46.4318C98.6358 46.3046 98.9514 46.0928 99.2026 45.815C99.4538 45.5372 99.6329 45.202 99.7242 44.8387C99.8104 44.4606 99.7708 44.0647 99.6114 43.7112C99.452 43.3576 99.1816 43.0658 98.8412 42.8801Z" fill="#FF83C2"/>
<path d="M118.097 106.127C115.095 106.521 112.069 106.711 109.042 106.696C109.023 104.292 109.198 101.892 109.566 99.5166C109.587 99.4268 109.576 99.3322 109.534 99.2499C109.492 99.1676 109.422 99.1028 109.337 99.067C109.252 99.0313 109.157 99.0269 109.069 99.0547C108.981 99.0824 108.905 99.1406 108.856 99.2187C107.971 100.607 106.667 101.679 105.134 102.279C104.674 102.459 104.874 103.208 105.341 103.027C110.305 101.1 108.143 97.6118 108.263 107.081C108.265 107.183 108.306 107.281 108.379 107.353C108.451 107.426 108.549 107.467 108.652 107.469C111.459 107.493 114.265 107.341 117.053 107.015C115.387 108.667 113.775 110.372 112.22 112.129C111.889 112.501 112.437 113.052 112.768 112.677C114.562 110.645 116.43 108.68 118.371 106.784C118.59 106.576 118.444 106.082 118.097 106.127Z" fill="#6DD3A8"/>
<path d="M145.459 18.9344C142.549 15.8677 139.492 12.6527 138.233 8.5128C138.074 7.98395 137.241 8.20889 137.403 8.74134C138.59 12.6503 141.287 15.7708 144.044 18.6939C142.519 18.6036 140.991 18.832 139.559 19.3645C138.126 19.897 136.82 20.7219 135.724 21.7868C135.259 22.2451 134.779 22.8015 135.164 23.4703C136.641 25.2969 138.521 26.7558 140.657 27.7323L133.323 27.6928C133.208 27.6928 133.099 27.7382 133.018 27.819C132.937 27.8997 132.892 28.0093 132.892 28.1235C132.892 28.2378 132.937 28.3473 133.018 28.4281C133.099 28.5089 133.208 28.5543 133.323 28.5543L142.989 28.6057C143.092 28.6031 143.19 28.5643 143.266 28.4961C143.343 28.4279 143.393 28.3349 143.407 28.2334C143.421 28.132 143.399 28.0287 143.345 27.942C143.29 27.8553 143.206 27.7907 143.109 27.7598C140.371 26.9259 137.921 25.3456 136.031 23.1963C135.887 23.0133 135.863 22.9367 136.006 22.7441C137.144 21.5271 138.564 20.6086 140.14 20.0695C141.716 19.5303 143.401 19.387 145.046 19.6523C145.136 19.672 145.23 19.6624 145.315 19.6251C145.399 19.5877 145.469 19.5245 145.515 19.4445C145.561 19.3645 145.581 19.2719 145.57 19.1802C145.56 19.0885 145.521 19.0024 145.459 18.9344Z" fill="#FF9F48"/>
<path d="M126.41 59.2431C125.528 61.191 125.11 63.3172 125.19 65.4541C125.208 65.9244 125.94 65.9268 125.921 65.4541C125.838 63.4464 126.222 61.4467 127.043 59.6128C127.235 59.1856 126.606 58.8135 126.41 59.2431ZM131.695 61.1455C131.617 59.201 132.093 57.2742 133.068 55.5901C133.109 55.5067 133.118 55.4106 133.091 55.3213C133.064 55.2321 133.005 55.1562 132.924 55.1092C132.844 55.0622 132.749 55.0476 132.658 55.0682C132.567 55.0889 132.487 55.1433 132.435 55.2204C131.393 57.0163 130.882 59.0709 130.962 61.1455C130.981 61.6157 131.713 61.6181 131.695 61.1455ZM132.15 75.2416C130.582 73.851 129.478 72.0138 128.985 69.9769C128.875 69.5187 128.169 69.7125 128.281 70.172C128.802 72.3335 129.971 74.2842 131.631 75.7632C131.984 76.0719 132.503 75.555 132.15 75.2416ZM134.597 75.9343C134.289 75.5754 133.774 76.0971 134.08 76.4524C135.235 77.7987 136.285 79.2316 137.221 80.7383C137.469 81.1391 138.103 80.7706 137.853 80.3686C136.883 78.8089 135.795 77.3264 134.597 75.9343ZM134.44 82.9889C135.502 84.3763 136.003 86.113 135.841 87.8527C135.799 88.323 136.533 88.3194 136.574 87.8527C136.733 85.9185 136.156 83.9953 134.958 82.4685C134.671 82.0987 134.158 82.6204 134.44 82.9889ZM139.29 86.4169C139.262 88.0432 138.874 89.6431 138.153 91.1013C137.941 91.5224 138.573 91.8933 138.785 91.4722C139.576 89.9029 139.998 88.174 140.021 86.4169C140.012 86.3262 139.969 86.2421 139.902 86.1809C139.834 86.1198 139.746 86.0859 139.655 86.0859C139.564 86.0859 139.476 86.1198 139.409 86.1809C139.341 86.2421 139.299 86.3262 139.29 86.4169ZM133.785 96.7954C132.74 98.2618 131.881 99.8522 131.228 101.53C131.055 101.969 131.762 102.159 131.934 101.724C132.572 100.108 133.405 98.5767 134.416 97.164C134.691 96.7799 134.056 96.4137 133.785 96.7954ZM129.184 108.921L130.013 113.234C130.102 113.696 130.809 113.501 130.72 113.039L129.89 108.726C129.801 108.264 129.095 108.459 129.184 108.921ZM114.04 145.174C113.828 144.751 113.202 145.121 113.407 145.543C113.986 146.723 114.273 148.025 114.244 149.339C113.605 148.579 113.184 147.66 113.028 146.679C112.953 146.215 112.247 146.412 112.322 146.873C112.527 148.142 113.127 149.314 114.036 150.223C114.088 150.28 114.159 150.317 114.235 150.327C114.312 150.338 114.389 150.321 114.455 150.28C114.511 150.299 114.569 150.304 114.627 150.297C114.685 150.289 114.741 150.268 114.79 150.236C114.839 150.205 114.88 150.162 114.91 150.112C114.94 150.062 114.959 150.006 114.965 149.948C115.1 148.302 114.78 146.65 114.04 145.174Z" fill="black"/>
<path d="M95.9152 165.602C95.6406 165.228 95.4858 164.78 95.4713 164.317C95.2174 162.442 95.5081 160.533 96.3088 158.819C93.2742 157.371 89.9388 156.665 86.5778 156.76C83.2168 156.855 79.9264 157.747 76.9781 159.363C76.635 165.775 77.2594 172.202 78.8302 178.428C79.4572 180.237 80.9911 182.307 83.1891 181.826C85.2914 181.367 85.2148 178.773 85.0784 177.101C85.0461 176.696 85.5666 176.665 85.7616 176.917L88.0948 179.955C88.644 180.673 89.3356 181.901 90.3945 181.8C90.8611 181.71 91.2874 181.475 91.6123 181.129C91.9373 180.782 92.1442 180.342 92.2036 179.87C92.2679 178.656 92.0077 177.448 91.4498 176.368C91.3218 176.05 91.7358 175.821 91.9882 175.954C94.7737 177.749 94.179 179.388 96.5086 181.219C96.765 181.349 97.0461 181.423 97.3333 181.437C97.6204 181.45 97.9073 181.403 98.1748 181.297C98.4423 181.192 98.6844 181.031 98.8852 180.825C99.0859 180.619 99.2408 180.373 99.3396 180.103C100.633 176.977 99.7703 172.91 98.1132 170.071C98.0746 170.001 98.0599 169.92 98.0711 169.841C98.0823 169.762 98.1189 169.688 98.1754 169.631C98.2319 169.575 98.3052 169.538 98.3844 169.527C98.4636 169.515 98.5443 169.53 98.6145 169.568C100.462 170.884 103.186 171.393 104.203 169.329C104.974 167.424 102.338 166.423 100.921 166.299C98.8921 166.156 97.2708 166.789 95.9152 165.602ZM82.0979 172.855C81.9364 173.295 81.228 173.104 81.3908 172.661C81.6398 171.997 81.8008 171.304 81.8694 170.598C81.9125 170.132 82.6459 170.129 82.6016 170.598C82.5344 171.37 82.365 172.128 82.0979 172.855ZM87.5624 171.88C87.4882 172.345 86.7822 172.148 86.8564 171.685L87.0957 170.182C87.1711 169.718 87.8758 169.916 87.8017 170.377C87.7235 170.879 87.6437 171.38 87.5624 171.88ZM93.6011 170.59C93.5198 171.053 92.815 170.856 92.8952 170.395L93.2912 168.122C93.3714 167.657 94.0785 167.855 93.9972 168.315C93.8656 169.075 93.7319 169.833 93.5963 170.59H93.6011Z" fill="#FFCEB6"/>
<path d="M151.76 205.092C151.053 203.092 150.514 201.037 150.147 198.949C148.472 201.428 147.908 204.631 145.241 205.53C144.797 205.65 144.326 205.629 143.894 205.469C143.462 205.309 143.091 205.019 142.832 204.638C142.572 204.003 142.513 203.304 142.664 202.634C143.114 197.877 143.172 197.927 142.972 197.777C142.56 197.47 140.521 198.017 139.308 199.536C138.111 200.885 138.161 201.343 137.273 202.306C137.081 202.474 136.852 202.593 136.604 202.654C136.356 202.715 136.097 202.715 135.849 202.656C135.601 202.596 135.371 202.478 135.178 202.311C134.985 202.145 134.834 201.934 134.739 201.697C134.141 200.485 134.683 199.551 136.487 194.065C134.159 194.471 132.757 198.273 130.526 198.714C130.093 198.811 129.639 198.732 129.263 198.494C128.888 198.257 128.623 197.879 128.526 197.446C128.456 196.206 128.802 194.978 129.509 193.957C131.537 190.44 134.039 187.219 136.946 184.385C137.47 183.796 137.585 183.583 139.69 182.718C138.052 181.581 136.527 180.539 135.098 179.462C135.039 179.427 134.972 179.408 134.903 179.408C134.834 179.408 134.766 179.427 134.707 179.462C121.033 189.833 120.11 189.852 120.258 190.478C121.503 196.011 123.093 201.462 125.018 206.798C125.846 209.002 125.771 208.889 126.334 209.2C139.096 216.218 138.701 215.901 138.941 215.758C143.533 212.792 147.794 209.342 151.652 205.469C151.702 205.421 151.738 205.361 151.757 205.295C151.776 205.228 151.777 205.158 151.76 205.092ZM121.14 190.973C121.089 190.918 121.057 190.85 121.047 190.776C121.037 190.702 121.05 190.627 121.085 190.561L121.078 190.531C121.219 190.425 121.18 190.412 121.302 190.363C121.364 190.337 121.433 190.332 121.497 190.349C121.562 190.365 121.62 190.403 121.661 190.455C123.47 192.497 125.539 194.294 127.814 195.8C128.208 196.058 127.84 196.692 127.445 196.431C125.116 194.894 122.996 193.06 121.14 190.975V190.973ZM138.634 215.291C137.368 211.854 136.296 208.348 135.425 204.79C135.314 204.331 136.023 204.137 136.132 204.595C137.004 208.153 138.075 211.658 139.34 215.096C139.504 215.542 138.795 215.731 138.634 215.293V215.291Z" fill="#FF83C2"/>
<path d="M150.837 197.021C157.903 190.985 167.964 192.739 176.968 191.757C176.732 189.223 175.932 186.775 174.626 184.592C173.2 182.477 171.302 180.723 169.083 179.466C166.864 178.209 164.383 177.485 161.836 177.349C160.576 177.305 160.112 177.507 157.24 178.307C143.6 182.074 143.755 181.873 139.988 183.393C138.719 183.766 137.605 184.539 136.811 185.596C134.082 188.318 131.757 191.416 129.907 194.798C129.529 195.545 128.793 196.945 129.452 197.731C130.305 198.747 131.75 197.207 132.317 196.588C133.603 195.185 134.891 193.265 137.016 193.293C137.114 193.294 137.207 193.334 137.275 193.404C137.344 193.474 137.382 193.568 137.381 193.666C137.381 193.755 137.447 193.533 135.971 198.007C135.724 198.677 135.511 199.36 135.334 200.052C135.224 200.363 135.209 200.7 135.291 201.019C135.373 201.338 135.548 201.627 135.793 201.847C137.349 202.936 137.975 197.837 141.867 197.069C142.352 196.923 142.873 196.946 143.344 197.134C143.532 197.264 143.677 197.448 143.76 197.661C143.842 197.874 143.859 198.107 143.808 198.33C143.41 203.32 143.165 203.394 143.449 204.234C143.568 204.435 143.738 204.6 143.942 204.712C144.146 204.824 144.377 204.879 144.61 204.87C147.33 204.956 148.182 199.29 150.837 197.021ZM138.958 189.124C138.958 189.221 138.919 189.315 138.851 189.383C138.782 189.452 138.689 189.49 138.592 189.49C138.495 189.49 138.401 189.452 138.333 189.383C138.264 189.315 138.226 189.221 138.226 189.124V187.403C138.226 187.305 138.264 187.212 138.333 187.144C138.401 187.075 138.495 187.036 138.592 187.036C138.689 187.036 138.782 187.075 138.851 187.144C138.919 187.212 138.958 187.305 138.958 187.403V189.124ZM148.967 192.256C149.163 193.209 149.235 194.183 149.182 195.155C149.154 195.624 148.423 195.625 148.45 195.155C148.504 194.249 148.441 193.34 148.261 192.451C148.166 191.989 148.874 191.793 148.967 192.254V192.256ZM143.941 191.915L143.67 189.969C143.605 189.507 144.312 189.31 144.377 189.774L144.647 191.72C144.711 192.18 144.003 192.378 143.94 191.913L143.941 191.915Z" fill="#FFCEB6"/>
<path d="M85.6513 188.499C85.6579 188.438 85.6464 188.375 85.6182 188.32C85.5899 188.264 85.5461 188.218 85.4922 188.187C89.4576 186.538 93.5467 185.204 97.7216 184.197C98.1356 183.944 97.9897 183.359 97.748 183.059C97.4477 182.688 96.9451 183.173 97.1713 183.554C93.1596 184.537 89.2273 185.82 85.4072 187.39C85.4223 187.342 85.4277 187.291 85.423 187.241C85.4183 187.191 85.4037 187.142 85.38 187.098C85.3563 187.053 85.3239 187.014 85.2848 186.982C85.2458 186.95 85.2007 186.926 85.1523 186.912C71.846 182.706 70.0393 183.253 68.4395 181.801C68.3636 181.731 68.2631 181.694 68.1599 181.698C68.0567 181.702 67.9594 181.747 67.8891 181.823C67.8891 181.823 67.87 181.514 67.8628 181.36L77.3655 178.114C77.8357 177.953 77.6335 177.204 77.1597 177.366L67.785 180.568C67.6187 180.246 67.0336 180.3 67.054 180.734C67.3053 186.281 67.7767 191.81 68.4683 197.321C68.5305 197.811 69.3058 197.817 69.2436 197.321C68.6206 192.356 68.1791 187.373 67.9191 182.373C70.3336 184.212 71.0575 183.265 84.8532 187.631C84.7983 187.674 84.7552 187.73 84.728 187.795C84.7008 187.859 84.6903 187.929 84.6976 187.999C84.7049 188.068 84.7297 188.134 84.7697 188.192C84.8097 188.249 84.8635 188.295 84.9262 188.326C84.5983 191.982 84.9695 195.667 86.0198 199.184C86.0471 199.283 86.1127 199.368 86.2021 199.418C86.2464 199.444 86.2952 199.46 86.3457 199.466C86.3962 199.472 86.4475 199.469 86.4966 199.455C86.5457 199.442 86.5917 199.419 86.6319 199.387C86.6721 199.356 86.7057 199.317 86.7309 199.273C86.756 199.229 86.7722 199.18 86.7785 199.129C86.7849 199.079 86.7811 199.028 86.7676 198.978C85.7339 195.588 85.355 192.032 85.6513 188.499ZM105.223 193.265C99.3054 195.52 93.4792 197.993 87.744 200.683C87.2929 200.895 87.6865 201.563 88.1364 201.354C93.5606 198.812 99.0693 196.464 104.663 194.31C104.616 194.289 104.574 194.26 104.539 194.223C104.504 194.186 104.477 194.143 104.459 194.096C104.44 194.048 104.432 193.998 104.433 193.947C104.434 193.896 104.446 193.846 104.466 193.8C104.645 193.396 105.09 193.635 105.663 193.783C105.768 193.504 105.57 193.131 105.223 193.265Z" fill="#B26EE6"/>
<path d="M83.9866 201.836C83.9866 201.836 74.3284 199.097 73.1522 198.755C72.1077 198.526 71.1369 198.04 70.3285 197.34C69.9695 196.991 69.4239 197.539 69.7793 197.89C71.2833 199.254 71.4891 199.086 83.7784 202.584C83.8752 202.604 83.9763 202.587 84.0609 202.536C84.1456 202.485 84.2075 202.403 84.2341 202.308C84.2606 202.212 84.2498 202.11 84.2038 202.023C84.1578 201.935 84.0801 201.868 83.9866 201.836ZM104.979 183.545C104.948 183.049 104.173 183.046 104.204 183.545C104.385 186.496 104.653 189.442 105.009 192.382C105.068 192.872 105.847 192.877 105.785 192.382C105.428 189.445 105.16 186.499 104.979 183.545Z" fill="#B26EE6"/>
<path d="M100.656 208.461C96.4443 207.25 92.235 206.032 88.1286 204.5C87.6608 204.326 87.4585 205.075 87.9228 205.248C92.0291 206.779 96.2103 208.1 100.45 209.209C100.549 209.236 100.655 209.223 100.745 209.172C100.834 209.121 100.9 209.037 100.927 208.937C100.954 208.838 100.941 208.732 100.89 208.643C100.839 208.554 100.755 208.488 100.656 208.461ZM100.356 210.255L101.222 225.544C101.251 226.041 102.026 226.045 101.997 225.544L101.135 210.255C101.104 209.764 100.328 209.76 100.356 210.255ZM119.92 199.942C115.277 197.054 110.212 194.909 104.907 193.583C104.815 193.565 104.719 193.582 104.638 193.629C104.556 193.677 104.495 193.753 104.466 193.842C104.437 193.932 104.441 194.029 104.478 194.115C104.515 194.202 104.583 194.272 104.668 194.312C109.923 195.62 114.939 197.744 119.535 200.609C119.954 200.875 120.343 200.205 119.92 199.942ZM105.166 210.026C117.529 205.282 117.533 205.508 118.969 204.128C119.31 203.769 118.763 203.215 118.421 203.58C117.136 204.777 117.439 204.499 104.96 209.278C104.498 209.455 104.699 210.205 105.166 210.026ZM100.01 224.593C90.2656 221.4 90.043 221.482 88.6933 220.337C88.3272 219.999 87.778 220.547 88.1453 220.885C89.5812 222.211 91.6284 222.664 93.4387 223.257L99.8041 225.341C100.279 225.497 100.484 224.748 100.01 224.593ZM119.093 219.883C115.332 222.075 111.369 223.902 107.258 225.337C105.861 225.949 104.344 226.24 102.819 226.189C102.324 226.134 102.329 226.907 102.819 226.965C104.333 227.027 105.842 226.754 107.237 226.163C111.494 224.702 115.596 222.823 119.483 220.553C119.571 220.5 119.635 220.416 119.66 220.317C119.686 220.218 119.672 220.113 119.62 220.024C119.569 219.936 119.485 219.871 119.386 219.845C119.287 219.818 119.182 219.832 119.093 219.883Z" fill="#6DD3A8"/>
<path d="M80.9634 205.337L70.2175 208.567C70.1229 208.542 70.0225 208.55 69.9328 208.589L69.3764 208.834C68.9265 209.032 69.2484 209.76 69.709 209.621L81.1955 206.165C81.2991 206.129 81.3852 206.055 81.436 205.957C81.4869 205.86 81.4987 205.747 81.4691 205.642C81.4394 205.536 81.3706 205.446 81.2766 205.389C81.1827 205.332 81.0706 205.314 80.9634 205.337ZM85.193 208.311C85.193 208.197 85.1476 208.087 85.0668 208.007C84.9861 207.926 84.8765 207.881 84.7623 207.881C84.648 207.881 84.5385 207.926 84.4577 208.007C84.3769 208.087 84.3315 208.197 84.3315 208.311C84.4499 213.113 84.8688 217.902 85.5855 222.651C85.668 223.197 86.4984 222.966 86.423 222.422C85.7333 217.747 85.3226 213.035 85.193 208.311ZM80.1641 223.058C67.4656 227.957 67.6522 227.985 65.7629 228.334L65.8479 228.161C65.8771 228.098 65.8915 228.029 65.89 227.959C65.8884 227.889 65.8711 227.82 65.8391 227.758C65.8072 227.696 65.7616 227.642 65.7057 227.6C65.6498 227.558 65.5851 227.53 65.5165 227.516C64.8951 222.209 64.4165 216.887 64.0806 211.553C64.046 211.002 63.1833 210.999 63.2192 211.553C63.413 214.644 64.4863 228.123 64.8333 228.685C64.7196 228.951 64.8333 229.309 65.2006 229.278C66.4467 229.14 67.6674 228.829 68.8272 228.353C70.1158 227.867 80.3962 223.89 80.3962 223.89C80.9059 223.696 80.6834 222.862 80.1641 223.058ZM63.9299 208.754C59.3335 206.858 54.5784 205.372 49.7202 204.314C55.7825 202.268 61.7718 200.011 67.6881 197.544C68.1918 197.335 67.9705 196.499 67.4584 196.714C53.4593 202.566 48.6732 203.443 48.495 204.001C48.349 203.963 48.203 203.93 48.057 203.891C47.9479 203.864 47.8324 203.881 47.7353 203.937C47.6381 203.994 47.567 204.086 47.5372 204.195C47.5073 204.303 47.5211 204.419 47.5755 204.518C47.63 204.616 47.7208 204.689 47.8285 204.722C53.2501 205.881 58.5609 207.509 63.7014 209.586C64.2123 209.796 64.436 208.963 63.9299 208.754Z" fill="#FF9F48"/>
<path d="M66.2394 186.975C61.3424 189.427 56.2157 191.391 50.9337 192.838C50.4551 192.99 50.8009 193.915 51.2089 194.073L52.2211 201.863C52.281 202.324 53.0144 202.33 52.9534 201.863L51.9771 194.352C54.7773 195.401 57.7 196.089 60.6745 196.398C61.1435 196.447 61.1399 195.715 60.6745 195.667C58.0577 195.39 53.243 194.367 51.7102 193.377C56.8474 191.927 61.8359 189.995 66.6091 187.606C67.0339 187.396 66.6606 186.765 66.2394 186.975ZM100.917 165.563C99.0859 165.419 96.1401 166.27 96.1844 164.172C95.9487 162.34 96.2666 160.479 97.0973 158.829C97.1446 158.744 97.1572 158.645 97.1327 158.551C97.1082 158.458 97.0483 158.378 96.9657 158.327H96.9537C93.7913 156.767 90.302 155.983 86.7759 156.043C83.2499 156.103 79.7891 157.004 76.6813 158.671C76.536 158.721 76.4125 158.82 76.3314 158.951C76.2504 159.081 76.2167 159.236 76.2362 159.389C75.9736 163.599 76.169 167.826 76.8189 171.995C77.4878 177.26 78.0154 179.467 79.8102 181.456C80.4175 182.084 81.226 182.48 82.0949 182.573C82.9638 182.667 83.8379 182.453 84.5651 181.968C85.0522 181.491 85.4232 180.908 85.6495 180.265C85.8758 179.622 85.9514 178.936 85.8705 178.259L87.9728 180.989C88.6548 181.875 89.4923 182.747 90.7163 182.493C92.9514 181.895 93.4193 179.425 92.5913 177.335C94.4686 179.436 94.2664 180.653 96.377 181.976C96.9602 182.226 97.6131 182.259 98.2189 182.071C98.8246 181.883 99.3436 181.485 99.683 180.95C101.442 178.445 100.628 173.58 99.3049 170.779C101.311 171.89 103.971 171.722 104.912 169.504C105.79 167.077 102.836 165.712 100.917 165.563ZM104.199 169.323C103.182 171.394 100.439 170.879 98.6097 169.562C98.5395 169.524 98.4588 169.51 98.3796 169.521C98.3004 169.532 98.2271 169.569 98.1706 169.626C98.1141 169.682 98.0775 169.756 98.0663 169.835C98.0551 169.914 98.0698 169.995 98.1084 170.065C99.7595 172.896 100.632 176.96 99.3348 180.098C99.2362 180.367 99.0816 180.613 98.8813 180.819C98.681 181.024 98.4394 181.185 98.1725 181.291C97.9055 181.396 97.6192 181.444 97.3325 181.431C97.0457 181.418 96.765 181.345 96.5086 181.215C94.1743 179.383 94.7797 177.745 91.9882 175.951C91.7358 175.818 91.323 176.045 91.4498 176.365C92.0077 177.444 92.2679 178.653 92.2036 179.867C92.1441 180.338 91.937 180.779 91.6121 181.125C91.2872 181.472 90.861 181.707 90.3945 181.797C89.3344 181.897 88.6428 180.666 88.0948 179.952L85.7616 176.914C85.5678 176.661 85.0437 176.692 85.0784 177.098C85.2136 178.773 85.2914 181.362 83.1891 181.823C80.9911 182.302 79.4572 180.235 78.8303 178.425C77.2592 172.198 76.6344 165.77 76.9769 159.356C79.926 157.742 83.2161 156.851 86.5767 156.757C89.9373 156.662 93.2723 157.366 96.3076 158.812C95.5074 160.526 95.2166 162.435 95.4701 164.31C95.5562 167.047 99.0596 166.158 100.915 166.286C102.331 166.417 104.969 167.421 104.199 169.323Z" fill="black"/>
<path d="M93.2911 168.128L92.895 170.401C92.8137 170.862 93.5208 171.059 93.601 170.596C93.7342 169.84 93.8662 169.082 93.997 168.323C94.0748 167.86 93.3724 167.66 93.2911 168.128ZM87.098 170.182L86.8587 171.685C86.7845 172.147 87.4904 172.346 87.5646 171.88L87.8039 170.377C87.8781 169.915 87.1721 169.718 87.098 170.182ZM81.8704 170.599C81.8024 171.304 81.6414 171.998 81.3918 172.661C81.2291 173.104 81.9362 173.294 82.099 172.855C82.3646 172.128 82.5336 171.37 82.6015 170.599C82.6434 170.13 81.9111 170.132 81.8704 170.599ZM179.329 164.414C177.93 165.106 176.403 165.507 174.844 165.59C175.932 164.217 176.697 162.616 177.082 160.907C177.467 159.198 177.462 157.424 177.068 155.716C176.976 155.329 176.829 154.954 176.741 154.568C176.643 154.145 176.597 153.715 176.49 153.292C174.99 147.626 170.249 143.707 166.018 139.607C165.679 139.279 165.16 139.796 165.499 140.125C170.177 144.658 174.991 148.575 176.015 154.632C176.31 156.229 178.162 160.13 173.87 165.62C173.59 165.62 173.455 165.774 173.45 165.965C173.445 166.155 173.641 165.965 172.82 166.854C172.373 166.742 171.933 166.6 171.504 166.429C171.068 166.251 170.877 166.959 171.309 167.135C171.616 167.254 171.931 167.355 172.247 167.451C168.871 170.827 165.068 173.057 160.811 175.992C160.752 176.035 160.706 176.094 160.679 176.162C160.651 176.23 160.644 176.304 160.657 176.376C160.671 176.448 160.704 176.514 160.754 176.568C160.804 176.621 160.868 176.66 160.939 176.678C158.582 177.011 151.938 179.119 148.792 179.893C145.25 180.646 141.797 181.772 138.493 183.253C137.885 183.485 137.352 183.878 136.95 184.39C134.044 187.224 131.542 190.445 129.514 193.962C128.905 194.883 128.552 195.95 128.491 197.052C128.483 197.496 128.651 197.925 128.958 198.245C129.266 198.565 129.688 198.749 130.132 198.758C132.51 198.804 134.056 194.494 136.492 194.069C134.707 199.511 134.139 200.483 134.744 201.702C134.839 201.939 134.989 202.149 135.183 202.316C135.376 202.483 135.606 202.601 135.854 202.66C136.102 202.72 136.361 202.719 136.609 202.659C136.856 202.598 137.086 202.479 137.278 202.311C138.143 201.372 138.094 200.915 139.312 199.541C140.456 198.105 142.53 197.448 142.977 197.782C143.171 197.926 143.127 197.86 142.669 202.639C142.518 203.308 142.577 204.008 142.837 204.643C143.096 205.023 143.467 205.314 143.899 205.473C144.331 205.633 144.801 205.654 145.246 205.534C147.304 204.839 147.913 203.12 149.386 200.241C150.464 198.103 152.263 196.415 154.466 195.476C161.509 192.052 169.264 193.411 177.371 192.452C177.468 192.45 177.56 192.411 177.629 192.343C177.697 192.275 177.737 192.182 177.738 192.086C177.535 189.308 176.687 186.616 175.26 184.224C173.809 182.033 171.87 180.207 169.595 178.889C167.32 177.572 164.771 176.799 162.148 176.631C161.103 176.581 161.019 176.726 161.184 176.631C165.668 173.538 169.501 171.309 173.089 167.666C174.167 167.902 175.275 167.964 176.373 167.851C176.837 167.801 176.842 167.069 176.373 167.118C175.474 167.213 174.566 167.185 173.675 167.035C173.876 166.809 174.076 166.581 174.273 166.346C176.159 166.334 178.017 165.892 179.706 165.054C180.122 164.837 179.752 164.206 179.329 164.414ZM161.837 177.352C164.384 177.483 166.866 178.206 169.086 179.463C171.306 180.72 173.203 182.477 174.626 184.594C175.932 186.778 176.733 189.226 176.969 191.759C167.906 192.746 157.901 190.99 150.837 197.023C148.182 199.297 147.33 204.958 144.604 204.863C144.372 204.871 144.141 204.816 143.937 204.704C143.733 204.592 143.562 204.427 143.444 204.226C143.173 203.414 143.401 203.286 143.803 198.323C143.854 198.1 143.837 197.867 143.754 197.653C143.671 197.44 143.527 197.257 143.339 197.126C142.868 196.938 142.347 196.915 141.861 197.062C137.995 197.824 137.339 202.925 135.787 201.839C135.543 201.619 135.369 201.331 135.287 201.011C135.205 200.692 135.22 200.356 135.328 200.045C135.506 199.346 137.394 193.629 137.362 193.75C137.376 193.695 137.378 193.638 137.366 193.582C137.355 193.527 137.331 193.474 137.296 193.43C137.262 193.385 137.217 193.349 137.166 193.324C137.116 193.299 137.06 193.286 137.003 193.286C134.878 193.259 133.592 195.177 132.304 196.581C131.737 197.199 130.292 198.734 129.439 197.723C128.781 196.937 129.517 195.537 129.895 194.791C131.743 191.408 134.068 188.309 136.798 185.588C137.592 184.531 138.706 183.758 139.975 183.386C144.85 181.421 147.02 181.177 152.172 179.724C161.152 177.19 160.697 177.313 161.837 177.352Z" fill="black"/>
<path d="M138.226 187.402V189.125C138.226 189.222 138.265 189.315 138.333 189.384C138.402 189.453 138.495 189.491 138.592 189.491C138.689 189.491 138.782 189.453 138.851 189.384C138.92 189.315 138.958 189.222 138.958 189.125V187.402C138.958 187.305 138.92 187.212 138.851 187.143C138.782 187.075 138.689 187.036 138.592 187.036C138.495 187.036 138.402 187.075 138.333 187.143C138.265 187.212 138.226 187.305 138.226 187.402ZM143.669 189.967L143.941 191.913C144.005 192.377 144.711 192.18 144.646 191.718L144.376 189.772C144.311 189.308 143.61 189.506 143.669 189.967ZM148.261 192.449C148.441 193.338 148.504 194.247 148.45 195.153C148.423 195.623 149.155 195.622 149.182 195.153C149.237 194.181 149.165 193.207 148.967 192.254C148.875 191.793 148.168 191.988 148.261 192.449ZM159.864 122.982C157.272 115.564 150.759 116.168 145.812 113.889C146.133 113.626 146.395 113.299 146.579 112.927C146.764 112.556 146.867 112.15 146.883 111.735C146.932 109.45 145.964 106.527 143.46 106.219C142.924 106.196 142.39 106.292 141.896 106.498C141.401 106.705 140.958 107.018 140.599 107.416C138.334 109.501 135.883 111.376 133.277 113.015C128.88 115.968 123.669 117.47 118.375 117.311C114.709 117.389 111.847 117.216 108.74 115.383C107.844 114.86 107.17 114.027 106.848 113.04C106.789 112.676 106.223 112.708 106.14 113.04C104.546 119.639 110.075 129.007 121.283 131.108C123.804 131.446 126.354 131.5 128.886 131.269C132.163 133.859 136.002 135.645 140.095 136.482C144.187 137.319 148.419 137.185 152.45 136.09C155.989 135.133 160.748 133.047 160.999 128.821C161.024 126.818 160.638 124.83 159.864 122.982ZM160.068 129.957C158.142 135.623 141.902 140.199 129.95 131.171C136.985 130.508 145.137 127.375 145.104 120.3C145.104 120.203 145.065 120.109 144.996 120.041C144.928 119.972 144.834 119.934 144.737 119.934C144.64 119.934 144.547 119.972 144.479 120.041C144.41 120.109 144.371 120.203 144.371 120.3C144.411 128.998 131.329 131.308 122.356 130.52C112.377 129.258 106.101 121.368 106.653 114.398C108.458 116.928 112.02 117.697 115.074 117.952C120.121 118.449 125.213 117.674 129.884 115.697C133.606 113.897 137.057 111.581 140.133 108.819C141.011 108.051 141.835 107.01 143.08 106.942C145.4 106.815 146.525 110.242 146.002 112.475C145.779 112.97 145.401 113.381 144.925 113.645C144.871 113.678 144.826 113.724 144.795 113.779C144.764 113.835 144.748 113.897 144.748 113.961C144.748 114.024 144.764 114.086 144.795 114.142C144.826 114.197 144.871 114.243 144.925 114.276C150.679 117.24 158.363 115.5 160.158 126.959C160.351 127.953 160.32 128.977 160.068 129.957Z" fill="black"/>
<path d="M112.074 120.13C111.858 119.711 111.225 120.081 111.441 120.5L112.325 122.212C112.542 122.629 113.174 122.26 112.957 121.841L112.074 120.13ZM129.514 122.698C129.68 123.135 130.388 122.945 130.22 122.503C129.931 121.738 129.642 120.973 129.354 120.208C129.189 119.771 128.481 119.96 128.647 120.403L129.514 122.698ZM134.078 124.088C133.323 125.268 132.209 126.175 130.901 126.675C129.592 127.175 128.157 127.242 126.808 126.866C126.714 126.84 126.614 126.853 126.53 126.901C126.445 126.949 126.383 127.028 126.357 127.122C126.332 127.215 126.344 127.315 126.392 127.4C126.44 127.484 126.519 127.546 126.613 127.572C128.118 127.984 129.715 127.905 131.172 127.345C132.629 126.785 133.869 125.775 134.711 124.461C134.961 124.056 134.33 123.689 134.078 124.088ZM119.64 124.783C119.299 124.911 118.922 124.904 118.586 124.765C118.249 124.625 117.979 124.363 117.828 124.032C117.485 123.147 117.433 122.176 117.677 121.259C117.747 120.799 117.041 120.6 116.971 121.066C116.798 121.665 116.745 122.293 116.815 122.913C116.886 123.533 117.078 124.133 117.381 124.679C117.66 125.095 118.078 125.398 118.561 125.533C119.044 125.668 119.558 125.626 120.013 125.415C120.426 125.193 120.056 124.559 119.64 124.783ZM143.244 109.909C142.681 110.861 142.046 111.768 141.343 112.622C141.042 112.981 141.557 113.501 141.861 113.14C142.614 112.246 143.289 111.289 143.877 110.279C143.919 110.196 143.927 110.1 143.9 110.01C143.874 109.921 143.814 109.845 143.734 109.798C143.653 109.751 143.558 109.736 143.467 109.757C143.376 109.778 143.297 109.832 143.244 109.909ZM144.136 36.1877C143.689 35.8006 143.137 35.5553 142.55 35.4833C141.963 35.4113 141.368 35.5157 140.841 35.7833C139.136 37.4895 140.193 40.3947 142.355 40.4126C144.778 40.4018 146.057 37.5242 144.136 36.1877ZM146.531 65.0858C145.557 65.1253 144.58 65.0833 143.613 64.9601C144.211 64.1393 144.793 63.297 145.324 62.4259C145.57 62.0227 144.936 61.6542 144.691 62.0562C144.186 62.8842 143.639 63.6835 143.07 64.4648C142.342 63.5248 141.76 62.4815 141.341 61.3694C141.178 60.9315 140.47 61.1206 140.634 61.5645C141.062 62.7033 141.65 63.776 142.378 64.7508C141.772 64.633 141.173 64.4828 140.583 64.3009C140.132 64.1597 139.94 64.8668 140.388 65.0068C141.017 65.2014 141.656 65.3611 142.303 65.4854C141.669 66.2969 141.001 67.0806 140.3 67.8341C139.977 68.1787 140.494 68.698 140.817 68.3534C141.625 67.4896 142.389 66.5882 143.108 65.6493C143.871 66.5078 144.746 67.2596 145.71 67.8844C146.108 68.1405 146.476 67.5063 146.08 67.2515C145.41 66.816 144.785 66.3142 144.215 65.7534C144.985 65.8258 145.759 65.8486 146.532 65.8216C147.001 65.7977 147.004 65.0666 146.531 65.0858ZM126.114 90.5953C125.163 89.8919 124.294 89.0836 123.524 88.1855C124.205 88.1488 124.889 88.166 125.568 88.237C126.036 88.2896 126.031 87.5574 125.568 87.5047C124.968 87.4416 124.365 87.4196 123.762 87.4389C124.146 86.6624 124.529 85.8835 124.94 85.1189C125.163 84.7037 124.531 84.334 124.307 84.7492C123.829 85.6346 123.384 86.5332 122.942 87.4341C122.437 86.7812 121.981 86.0908 121.58 85.369C121.357 84.955 120.724 85.3235 120.949 85.7387C121.301 86.379 121.697 86.995 122.132 87.5825C121.413 87.6842 120.704 87.8443 120.012 88.0611C119.564 88.2035 119.755 88.9106 120.206 88.767C120.967 88.5287 121.75 88.3616 122.542 88.2681C122.096 89.2133 121.661 90.1633 121.251 91.1253C121.069 91.5549 121.7 91.9282 121.884 91.4963C122.268 90.5905 122.68 89.7015 123.099 88.8089C123.892 89.7083 124.779 90.5209 125.744 91.233C126.125 91.5082 126.491 90.8729 126.114 90.5953ZM91.8735 97.7325C91.1173 98.1536 90.3719 98.5999 89.6217 99.0331C89.8454 98.4001 90.0608 97.7636 90.251 97.1186C90.2769 97.025 90.2645 96.925 90.2166 96.8405C90.1687 96.756 90.0892 96.694 89.9956 96.6682C89.902 96.6423 89.8019 96.6547 89.7174 96.7026C89.633 96.7505 89.571 96.83 89.5451 96.9236C89.4127 97.3727 89.2715 97.8182 89.1215 98.2601C88.7626 97.5422 88.4036 96.8171 88.0746 96.0801C87.8843 95.6493 87.2514 96.0226 87.4416 96.4498C87.858 97.3891 88.3067 98.3128 88.7745 99.2269C88.5903 99.7282 89.0138 99.3812 85.7354 101.278C85.6545 101.328 85.5963 101.408 85.5735 101.501C85.5506 101.593 85.5647 101.691 85.6129 101.773C85.6611 101.856 85.7395 101.916 85.8314 101.941C85.9233 101.967 86.0215 101.955 86.1051 101.909L88.1966 100.701C87.9573 101.261 87.718 101.816 87.4608 102.364C87.2586 102.788 87.8891 103.16 88.0925 102.734C88.5041 101.872 88.8818 100.995 89.2256 100.102L89.2424 100.092C89.654 100.864 90.0692 101.633 90.5167 102.383C90.5689 102.46 90.6485 102.515 90.7394 102.535C90.8303 102.556 90.9256 102.541 91.0061 102.494C91.0865 102.447 91.1461 102.372 91.1728 102.282C91.1994 102.193 91.1911 102.097 91.1496 102.014C90.7075 101.261 90.2831 100.498 89.8765 99.7258L92.2432 98.3582C92.3141 98.3037 92.3626 98.2252 92.3795 98.1374C92.3965 98.0496 92.3807 97.9587 92.3353 97.8817C92.2898 97.8048 92.2177 97.7471 92.1327 97.7196C92.0476 97.6921 91.9554 97.6967 91.8735 97.7325ZM57.6654 63.784C56.6687 63.4753 55.6792 63.1486 54.6921 62.8148C55.3418 62.5157 55.9819 62.195 56.6005 61.8325C56.6793 61.7812 56.7353 61.7016 56.757 61.6101C56.7787 61.5186 56.7644 61.4223 56.717 61.3411C56.6696 61.2599 56.5929 61.2001 56.5026 61.1739C56.4123 61.1478 56.3154 61.1574 56.232 61.2007C55.4021 61.677 54.5411 62.0967 53.6547 62.457C53.4632 62.39 53.2706 62.3266 53.0804 62.2584C53.3859 61.0384 53.6089 59.7992 53.748 58.5493C53.7971 58.0814 53.0636 58.085 53.0157 58.5493C52.8849 59.7142 52.6779 60.8693 52.396 62.0072C51.0311 61.5134 49.6751 60.9949 48.3278 60.4517C47.8911 60.2734 47.7021 60.9818 48.134 61.1576C52.7932 63.0457 52.2763 62.5288 52.1387 63.0146C51.2384 63.3149 50.319 63.5547 49.3867 63.7325C48.9237 63.8187 49.1199 64.5246 49.5806 64.4385C50.3513 64.2896 51.1134 64.0991 51.8635 63.8677C51.5524 64.8574 51.1841 65.8283 50.7603 66.7752C50.5665 67.2012 51.1983 67.5733 51.3933 67.1462C53.3185 62.8651 51.9664 63.9156 53.6774 63.2324C54.9337 63.6679 56.1901 64.0891 57.4656 64.4815C57.9226 64.6299 58.1141 63.9228 57.6654 63.784ZM80.3428 19.2512C80.0293 19.4642 79.7038 19.6508 79.3772 19.8387L80.1262 18.7618C80.3954 18.3742 79.7672 18.008 79.4944 18.3921L78.5121 19.8052C78.199 18.9734 77.9853 18.1075 77.8756 17.2255C77.8193 16.7637 77.0859 16.7577 77.1433 17.2255C77.2821 18.3573 77.5765 19.4646 78.0179 20.5159C77.0363 20.9659 76.0032 21.2938 74.9417 21.4923C74.4799 21.5808 74.6749 22.2879 75.1368 22.1982C75.8582 22.0518 76.5677 21.8518 77.2594 21.5999L75.6261 23.9595C75.3569 24.3471 75.9851 24.7132 76.2591 24.328L78.3721 21.2888C78.814 22.1697 79.3599 22.9944 79.9982 23.7453C80.3045 24.1042 80.8202 23.5837 80.5163 23.2272C79.9093 22.5128 79.3932 21.7259 78.9799 20.8844C79.5787 20.591 80.1575 20.2585 80.7125 19.8889C81.1002 19.6197 80.734 18.9856 80.3428 19.2512ZM118.971 44.1361C118.82 43.691 118.113 43.8825 118.264 44.3312C118.423 44.8014 119.902 49.1842 119.977 49.4606C120.028 49.6729 119.994 49.8966 119.882 50.0841C119.77 50.2716 119.59 50.4081 119.379 50.4645C117.189 50.8859 114.932 50.7921 112.785 50.1905C112.535 50.127 112.23 50.3675 112.334 50.6403C114.023 55.0722 115.712 59.5049 117.399 63.9383C115.185 63.6033 112.985 63.1845 110.807 62.6593C110.474 62.5791 110.159 63.0182 110.448 63.2707C113.188 65.6254 115.882 68.032 118.53 70.4904L112.575 71.8424C112.117 71.9465 112.311 72.6537 112.77 72.5484L119.392 71.0456C119.439 71.0322 119.482 71.0098 119.52 70.9796C119.558 70.9493 119.59 70.9119 119.613 70.8695C119.637 70.827 119.651 70.7803 119.657 70.7321C119.662 70.6839 119.658 70.6351 119.644 70.5885C119.539 70.2296 112.293 63.912 112.01 63.6679C113.949 64.0987 115.899 64.4744 117.866 64.7555C118.106 64.7902 118.429 64.5976 118.317 64.3056L113.268 51.0496C114.385 51.2932 115.522 51.4306 116.664 51.46C117.779 51.5986 118.911 51.4393 119.945 50.9981C120.286 50.8207 120.545 50.519 120.67 50.1555C120.794 49.792 120.774 49.3945 120.614 49.0454C120.441 48.3885 119.994 47.1789 118.971 44.1361ZM68.2126 47.6503C68.2377 47.1789 67.5054 47.1812 67.4803 47.6503C67.3697 49.8027 67.6065 51.9589 68.1815 54.036C68.2073 54.1297 68.2693 54.2092 68.3538 54.2571C68.4383 54.305 68.5383 54.3174 68.632 54.2915C68.7256 54.2656 68.8051 54.2036 68.853 54.1192C68.9009 54.0347 68.9133 53.9346 68.8874 53.841C68.3319 51.827 68.104 49.7367 68.2126 47.6503ZM71.9756 43.9208C72.0199 43.4505 71.2864 43.4541 71.2433 43.9208C71.1 45.49 71.1773 47.0717 71.4731 48.6195C71.5604 49.0813 72.2663 48.8851 72.1802 48.4244C71.903 46.94 71.8341 45.4242 71.9756 43.9208ZM77.6554 55.5006C76.2696 53.3447 75.6817 50.772 75.9935 48.2282C76.0509 47.7616 75.3174 47.7651 75.2612 48.2282C74.9427 50.9024 75.5654 53.6041 77.0225 55.8691C77.2773 56.2651 77.9115 55.8978 77.6554 55.5006ZM77.2426 63.1797C77.3344 63.1997 77.4303 63.1837 77.5107 63.1351C77.591 63.0865 77.6497 63.009 77.6747 62.9185C77.6997 62.8279 77.689 62.7313 77.6449 62.6483C77.6008 62.5654 77.5267 62.5025 77.4376 62.4726C76.6369 62.2719 75.8939 61.8877 75.2674 61.3502C74.6409 60.8128 74.148 60.1369 73.8278 59.376C73.6507 58.9453 72.9424 59.1367 73.1218 59.5711C73.4756 60.4549 74.0333 61.2425 74.7494 61.8696C75.4656 62.4968 76.3199 62.9457 77.2426 63.1797ZM79.918 68.1967C77.9454 68.0258 76.0855 67.2042 74.6306 65.8611C74.2837 65.5416 73.7644 66.0597 74.1126 66.3804C75.7105 67.852 77.7532 68.7491 79.918 68.9301C80.387 68.9696 80.3846 68.2374 79.918 68.1967ZM89.3058 65.1372C87.5268 65.8225 85.5745 65.9177 83.7373 65.4088C83.6458 65.3898 83.5505 65.4064 83.4707 65.4551C83.391 65.5039 83.3329 65.5812 83.3082 65.6714C83.2835 65.7615 83.2941 65.8576 83.3378 65.9402C83.3815 66.0228 83.455 66.0857 83.5434 66.116C85.5078 66.6633 87.5958 66.5677 89.502 65.8432C89.9364 65.6769 89.7473 64.9673 89.3058 65.1372ZM98.8802 62.3314C97.0974 62.5548 95.3246 62.8419 93.5618 63.1929C93.0999 63.2838 93.2949 63.991 93.7568 63.8988C95.4542 63.5614 97.1621 63.2822 98.8802 63.0613C99.3397 63.0062 99.3481 62.2728 98.8802 62.3314ZM102.223 67.1246C100.851 66.2779 99.2102 65.9769 97.6263 66.2811C97.1621 66.3672 97.3583 67.0732 97.8201 66.987C99.2137 66.7312 100.652 67.006 101.854 67.7576C102.256 68.0064 102.624 67.3735 102.223 67.1246ZM71.7495 77.5139C71.3666 77.2399 70.9992 77.8728 71.3809 78.1468C72.4609 78.9157 73.6661 79.4914 74.9429 79.8483C75.0357 79.8715 75.1339 79.8574 75.2165 79.8092C75.299 79.7609 75.3594 79.6822 75.3848 79.59C75.4101 79.4978 75.3983 79.3993 75.352 79.3156C75.3056 79.232 75.2284 79.1698 75.1368 79.1423C73.9222 78.7989 72.7762 78.248 71.7495 77.5139ZM100.025 92.3302C100.317 91.9153 100.509 91.439 100.588 90.938C100.666 90.4371 100.628 89.9248 100.478 89.4407C100.341 88.9908 99.64 89.1822 99.7728 89.6345C99.8953 90.025 99.9247 90.4388 99.8586 90.8426C99.7925 91.2465 99.6329 91.6294 99.3924 91.9605C99.1207 92.347 99.7561 92.7131 100.025 92.3302ZM87.9537 38.2745C88.424 38.296 88.4228 37.5637 87.9537 37.541C86.7646 37.4863 85.6337 37.01 84.7639 36.1973C84.4181 35.8767 83.8988 36.3935 84.2446 36.7142C85.2561 37.6589 86.5711 38.2121 87.9537 38.2745ZM96.8593 17.2961L97.7783 13.2902C97.8835 12.8307 97.18 12.6357 97.0723 13.0952L96.1522 17.1023C96.0469 17.5605 96.7529 17.7568 96.8593 17.2961ZM55.4279 17.9937C55.8886 18.0738 56.0872 17.3679 55.6229 17.2877C53.9245 17 52.3778 16.1338 51.2449 14.8361C50.9326 14.4771 50.4169 15.0012 50.7268 15.3554C51.9466 16.7458 53.6056 17.6768 55.4279 17.9937ZM149.324 86.9902V91.2976C149.329 91.3913 149.37 91.4793 149.438 91.5437C149.506 91.6081 149.597 91.644 149.691 91.644C149.784 91.644 149.875 91.6081 149.943 91.5437C150.011 91.4793 150.052 91.3913 150.057 91.2976V86.9902C150.052 86.8966 150.011 86.8085 149.943 86.7441C149.875 86.6797 149.784 86.6438 149.691 86.6438C149.597 86.6438 149.506 86.6797 149.438 86.7441C149.37 86.8085 149.329 86.8966 149.324 86.9902ZM181.769 116.559C181.299 116.522 181.302 117.256 181.769 117.292C192.667 118.141 199.329 128.446 204.435 136.809C204.68 137.21 205.314 136.843 205.067 136.438C199.456 127.254 192.939 117.486 181.769 116.559ZM208.727 131.156C206.842 126.986 204.09 123.267 200.656 120.244C197.221 117.221 193.181 114.965 188.806 113.626C188.714 113.606 188.618 113.622 188.538 113.67C188.458 113.719 188.399 113.796 188.374 113.887C188.349 113.977 188.36 114.074 188.404 114.157C188.448 114.24 188.522 114.303 188.611 114.333C192.894 115.649 196.847 117.863 200.207 120.828C203.567 123.793 206.256 127.439 208.095 131.525C208.285 131.955 208.919 131.582 208.727 131.156ZM53.4273 167.106C49.9341 162.55 46.7487 157.765 43.8924 152.785C43.842 152.704 43.762 152.646 43.6694 152.623C43.5768 152.6 43.4789 152.614 43.3966 152.662C43.3143 152.711 43.254 152.789 43.2286 152.881C43.2032 152.973 43.2147 153.071 43.2606 153.155C46.1157 158.136 49.3007 162.921 52.7944 167.477C53.0768 167.845 53.7145 167.48 53.4273 167.106ZM52.0203 169.902C45.6105 167.753 39.3775 165.109 33.3775 161.994C32.9611 161.778 32.589 162.41 33.009 162.627C39.0645 165.772 45.3556 168.441 51.8252 170.609C52.2739 170.76 52.4666 170.053 52.0203 169.902ZM47.5549 173.577C43.114 174.991 38.5144 175.847 33.8621 176.125C33.393 176.153 33.3894 176.886 33.8621 176.859C38.5801 176.578 43.245 175.712 47.7499 174.283C48.1974 174.14 48.0096 173.433 47.5549 173.577ZM141.399 221.192C141.3 220.73 140.593 220.925 140.692 221.385C141.553 225.406 142.412 229.426 143.269 233.447C143.368 233.908 144.075 233.713 143.977 233.252L141.399 221.192ZM144.492 220.158C144.192 219.799 143.677 220.315 143.973 220.677L153.175 231.864C153.476 232.223 153.99 231.708 153.695 231.346L144.492 220.158ZM159.045 222.988C155.282 220.919 151.331 219.214 147.244 217.894C146.793 217.749 146.602 218.455 147.048 218.6C151.075 219.899 154.968 221.58 158.676 223.619C159.096 223.847 159.465 223.215 159.045 222.988Z" fill="black"/>
<path d="M113.944 92.7015C113.484 92.6894 113.031 92.817 112.645 93.0676C112.26 93.3182 111.959 93.6799 111.783 94.105C111.736 94.6937 111.88 95.2817 112.194 95.7822C112.507 96.2827 112.973 96.6692 113.523 96.8845C113.815 96.9333 114.113 96.9241 114.402 96.8575C114.69 96.7908 114.962 96.6679 115.203 96.4959C115.444 96.3239 115.648 96.1061 115.805 95.8549C115.962 95.6038 116.067 95.3243 116.116 95.0323C116.137 94.7342 116.096 94.4349 115.997 94.1531C115.897 93.8713 115.741 93.613 115.537 93.3943C115.333 93.1757 115.087 93.0013 114.813 92.8821C114.538 92.7629 114.243 92.7014 113.944 92.7015ZM40.1566 29.7378C43.491 30.4027 46.9203 30.4392 50.2682 29.8454C43.295 41.1871 44.0859 39.7765 43.7592 40.5973C43.5283 41.4264 43.8191 42.1778 44.9833 41.7028C45.9405 41.3128 48.2904 40.3149 54.2155 37.8393C51.0675 46.9148 50.3974 48.274 50.5626 50.6036C50.5637 50.6712 50.5824 50.7373 50.6167 50.7955C50.6511 50.8538 50.6999 50.9021 50.7584 50.9358C50.817 50.9696 50.8833 50.9876 50.9509 50.9881C51.0185 50.9885 51.085 50.9715 51.1441 50.9387C52.8945 49.9202 54.437 48.5806 55.6908 46.9902C55.9947 46.6025 55.4515 46.0497 55.1416 46.4434C54.0732 47.7972 52.7869 48.9638 51.3355 49.8953C51.3882 47.9941 51.7304 47.3826 55.2433 37.2566C55.333 36.997 55.0375 36.6667 54.7647 36.778L44.4747 41.0854C44.4006 40.8294 44.7296 40.3412 44.8253 40.1869C45.1364 39.6783 51.3917 29.508 51.3917 29.508C51.4417 29.4168 51.4533 29.3095 51.4242 29.2096C51.395 29.1098 51.3274 29.0256 51.2362 28.9756C50.7002 28.6812 47.2877 30.2259 40.9391 29.0952C42.6626 26.8226 44.0989 24.3459 45.2154 21.7212C45.408 21.2677 44.7368 20.8716 44.5465 21.3311C41.6438 28.2182 38.9253 29.3633 40.1566 29.7378ZM160.774 102.866L154.415 105.343C153.904 105.542 154.126 106.375 154.643 106.18L161.003 103.702C161.512 103.498 161.291 102.664 160.774 102.866ZM161.341 76.386L162.503 84.1381C162.584 84.6838 163.413 84.4516 163.333 83.9084C162.946 81.3256 162.559 78.7419 162.173 76.1574C162.09 75.6106 161.26 75.844 161.341 76.386ZM51.9852 96.0781L52.7653 102.405C52.8311 102.948 53.6938 102.954 53.6268 102.405L52.8467 96.0781C52.7797 95.5349 51.9182 95.5277 51.9852 96.0781ZM60.2315 116.632C64.4791 112.964 65.9748 113.07 65.4962 112.324C65.4378 112.232 65.3465 112.165 65.2408 112.137C65.1352 112.11 65.0229 112.123 64.9266 112.175C63.0528 113.305 61.2784 114.593 59.6225 116.024C59.2025 116.385 59.814 116.992 60.2315 116.632ZM76.6249 91.7778C76.7415 92.8989 77.1292 93.9748 77.7544 94.9127C78.0631 95.3698 78.8097 94.939 78.4986 94.4784C77.9476 93.6751 77.6002 92.75 77.4864 91.7826C77.4253 91.2334 76.565 91.2262 76.6249 91.7778ZM30.8824 85.1109L27.4628 86.6053C26.9555 86.8267 27.3946 87.5697 27.8971 87.3496L31.3168 85.8551C31.8241 85.6326 31.3862 84.8919 30.8824 85.1109ZM28.5062 50.8298C26.0949 50.9988 23.6748 50.6655 21.3989 49.851C20.8772 49.6632 20.6511 50.496 21.1704 50.6814C23.5196 51.5211 26.0174 51.8649 28.5062 51.6913C29.0554 51.653 29.059 50.7903 28.5062 50.8298ZM108.336 38.6589C107.189 37.6659 106.42 36.307 106.159 34.8121C106.06 34.2665 105.231 34.4975 105.322 35.0407C105.617 36.6827 106.465 38.1743 107.724 39.2679C108.143 39.6341 108.756 39.0227 108.336 38.6589ZM123.516 19.8426C125.32 18.6725 127.125 17.5031 128.931 16.3345C129.396 16.0342 128.965 15.2887 128.497 15.5915L123.08 19.0984C122.617 19.3987 123.049 20.1454 123.516 19.8426ZM177.139 87.2945L183.144 88.302C183.686 88.3917 183.919 87.5625 183.372 87.4716L177.367 86.4642C176.825 86.3732 176.592 87.2024 177.139 87.2945ZM187.199 56.3361C186.822 54.0392 186.81 51.6971 187.163 49.3964C187.247 48.8543 186.416 48.6198 186.331 49.1678C185.954 51.6192 185.966 54.1148 186.368 56.5622C186.458 57.1114 187.289 56.8805 187.199 56.3361ZM173.294 125.57C171.645 126.386 169.995 127.201 168.344 128.015C167.848 128.262 168.283 129.005 168.78 128.759L173.73 126.314C174.226 126.069 173.79 125.324 173.294 125.57ZM186.543 140.179L184.931 146.239C184.904 146.348 184.921 146.464 184.977 146.561C185.034 146.658 185.127 146.729 185.235 146.759C185.343 146.789 185.459 146.775 185.558 146.721C185.656 146.666 185.729 146.576 185.762 146.468L187.375 140.409C187.399 140.301 187.38 140.187 187.323 140.093C187.266 139.998 187.175 139.928 187.068 139.899C186.961 139.87 186.847 139.882 186.75 139.934C186.652 139.986 186.578 140.074 186.543 140.179ZM128.038 163.389C128.576 163.516 128.807 162.685 128.266 162.558C126.788 162.213 125.364 161.67 124.032 160.943C123.545 160.679 123.109 161.422 123.597 161.687C124.994 162.451 126.488 163.023 128.038 163.389ZM144.58 142.972C144.341 142.47 143.598 142.907 143.837 143.406L146.165 148.272C146.404 148.772 147.147 148.337 146.909 147.838L144.58 142.972ZM215.891 152.353L218.398 156.873C218.453 156.973 218.546 157.046 218.656 157.078C218.766 157.109 218.883 157.096 218.983 157.041C219.083 156.985 219.157 156.893 219.189 156.783C219.22 156.673 219.207 156.555 219.152 156.455L216.639 151.936C216.577 151.849 216.486 151.788 216.382 151.765C216.279 151.741 216.17 151.757 216.077 151.809C215.985 151.861 215.914 151.945 215.88 152.045C215.846 152.146 215.85 152.256 215.891 152.353ZM208.364 84.2973L204.894 85.9796C204.395 86.2189 204.831 86.9643 205.327 86.7238L208.797 85.0415C209.298 84.7998 208.86 84.0568 208.364 84.2973Z" fill="#B26EE6"/>
</svg>
